<?xml version="1.0" encoding="UTF-8"?>
<svg id="Layer_1" data-name="Layer 1" xmlns="http://www.w3.org/2000/svg" version="1.1" viewBox="0 0 271.9 68.8">
  <defs>
    <style>
      .cls-1 {
        fill: #965e25;
      }

      .cls-1, .cls-2 {
        stroke-width: 0px;
      }

      .cls-2 {
        fill: #fff;
      }
    </style>
  </defs>
  <g>
    <path class="cls-2" d="M122.9,7.1v13.9h7.8v2.8h-11V7.1h3.2Z"/>
    <path class="cls-2" d="M135.2,9.7v4.3h7.8v2.3h-7.8v4.7h8.3v2.7h-11.5V7.1h11.4v2.7h-8.3Z"/>
    <path class="cls-2" d="M158.3,11.9h-3.1c0-.2,0-.3,0-.3,0-.9-.3-1.5-.6-1.8s-1.2-.4-2.4-.4-2.5.1-2.9.4c-.5.3-.7.9-.7,1.7s.2,1.7.6,1.9c.4.2,1.6.4,3.7.5,2.5.1,4.1.5,4.8,1.1.7.6,1.1,1.8,1.1,3.6s-.4,3.7-1.3,4.3-2.7,1-5.7,1-4.4-.3-5.2-1c-.9-.6-1.3-1.9-1.3-3.9v-.6s3.1,0,3.1,0v.4c0,1.2.2,1.9.6,2.1.4.3,1.5.4,3.3.4s2.3-.2,2.7-.5c.4-.3.6-1,.6-2.1s-.1-1.3-.4-1.6c-.3-.3-.9-.4-1.9-.5h-1.8c-2.6-.3-4.3-.6-5.1-1.2s-1.1-1.8-1.1-3.7.4-3.2,1.3-3.9c.9-.6,2.7-1,5.3-1s4.2.3,5.1.9,1.3,1.8,1.3,3.5v.6Z"/>
    <path class="cls-2" d="M134,29.1v16.7h-3.2v-7.2h-7.8v7.2h-3.2v-16.7h3.2v6.8h7.8v-6.8h3.2Z"/>
    <path class="cls-2" d="M147,42.6h-7.2l-1,3.2h-3.4l5.6-16.7h4.8l5.6,16.7h-3.3l-1.1-3.2ZM146.3,40.2l-2.9-8.7-2.8,8.7h5.7Z"/>
    <path class="cls-2" d="M152.8,45.8v-16.7h8.2c1.9,0,3.2.3,3.9.9.7.6,1,1.8,1,3.5s-.8,3.3-2.5,3.6h0c1.9.4,2.9,1.7,2.9,4s-.4,2.9-1.1,3.6-2,1-3.8,1h-8.7ZM156,36.1h3.9c1.3,0,2.1-.1,2.4-.4.3-.3.5-.9.5-1.9s-.8-2-2.3-2h-4.5v4.3ZM156,43.1h4.6c1.1,0,1.8-.2,2.1-.5.3-.3.5-.9.5-1.9s-.2-1.6-.5-1.9-1.2-.4-2.6-.4h-4.1v4.7Z"/>
    <path class="cls-2" d="M171.9,29.1v16.7h-3.2v-16.7h3.2Z"/>
    <path class="cls-2" d="M181.5,31.9v13.9h-3.2v-13.9h-4.8v-2.8h13v2.8h-5Z"/>
    <path class="cls-2" d="M198.2,42.6h-7.2l-1,3.2h-3.4l5.6-16.7h4.8l5.6,16.7h-3.3l-1.1-3.2ZM197.5,40.2l-2.9-8.7-2.8,8.7h5.7Z"/>
    <path class="cls-2" d="M210.7,31.9v13.9h-3.2v-13.9h-4.8v-2.8h13v2.8h-5Z"/>
    <path class="cls-2" d="M220.4,29.1v16.7h-3.2v-16.7h3.2Z"/>
    <path class="cls-2" d="M230.3,28.9c3,0,5,.5,5.9,1.5.9,1,1.3,3.3,1.3,6.8s-.4,6.2-1.3,7.2c-.9,1-3,1.5-6.4,1.5s-5-.5-5.9-1.5c-.9-1-1.3-3.1-1.3-6.5s.4-6.5,1.3-7.5c.9-1,3-1.5,6.4-1.5ZM230.1,31.6c-2.1,0-3.4.3-3.7.8-.4.5-.5,2.4-.5,5.7s.2,3.8.6,4.3c.4.5,1.7.7,3.7.7s3.1-.3,3.5-.8c.4-.6.6-2.2.6-5s-.2-4.5-.6-5c-.4-.5-1.6-.8-3.6-.8Z"/>
    <path class="cls-2" d="M255.2,29.1v16.7h-5.4l-4.8-9.2c-.2-.5-.6-1.3-1.1-2.4l-.5-1.2-.5-1.2h-.1v1.1s0,1.1,0,1.1v2.2s0,9.6,0,9.6h-3.2v-16.7h5.4l4.3,8.5c.4.8.8,1.7,1.3,2.7l.6,1.4.6,1.4h.1v-1.1s0-1.1,0-1.1v-2.2s0-9.6,0-9.6h3.2Z"/>
    <path class="cls-2" d="M270.5,33.9h-3.1c0-.2,0-.3,0-.3,0-.9-.3-1.5-.6-1.8s-1.2-.4-2.4-.4-2.5.1-2.9.4c-.5.3-.7.9-.7,1.7s.2,1.7.6,1.9c.4.2,1.6.4,3.7.5,2.5.1,4.1.5,4.8,1.1.7.6,1.1,1.8,1.1,3.6s-.4,3.7-1.3,4.3-2.7,1-5.7,1-4.4-.3-5.2-1c-.9-.6-1.3-1.9-1.3-3.9v-.6s3.1,0,3.1,0v.4c0,1.2.2,1.9.6,2.1.4.3,1.5.4,3.3.4s2.3-.2,2.7-.5c.4-.3.6-1,.6-2.1s-.1-1.3-.4-1.6c-.3-.3-.9-.4-1.9-.5h-1.8c-2.6-.3-4.3-.6-5.1-1.2s-1.1-1.8-1.1-3.7.4-3.2,1.3-3.9c.9-.6,2.7-1,5.3-1s4.2.3,5.1.9c.9.6,1.3,1.8,1.3,3.5v.6Z"/>
    <path class="cls-2" d="M119.8,67.8v-16.7h8.2c2.3,0,4,.5,4.9,1.5.9,1,1.4,2.8,1.4,5.4,0,4.2-.4,6.8-1.1,8-.8,1.2-2.4,1.8-5.1,1.8h-8.3ZM122.9,65.1h4.5c1.5,0,2.5-.3,2.9-1,.4-.7.7-2.2.7-4.6s-.2-4-.6-4.7-1.3-1-2.8-1h-4.7v11.4Z"/>
    <path class="cls-2" d="M147.4,51.1h3.2v11.1c0,2.3-.4,3.9-1.3,4.6-.9.8-2.7,1.1-5.5,1.1s-4.8-.4-5.7-1.1c-.9-.7-1.4-2.2-1.4-4.5v-11.3h3.2v11.3c0,1.2.2,2,.7,2.3.4.3,1.5.5,3.1.5s2.7-.2,3.2-.5c.4-.3.6-1.2.6-2.5v-11.2Z"/>
    <path class="cls-2" d="M172.1,55.9h-3.1c0-.2,0-.3,0-.3,0-.9-.3-1.5-.6-1.8s-1.2-.4-2.4-.4-2.5.1-2.9.4c-.5.3-.7.9-.7,1.7s.2,1.7.6,1.9c.4.2,1.6.4,3.7.5,2.5.1,4.1.5,4.8,1.1.7.6,1.1,1.8,1.1,3.6s-.4,3.7-1.3,4.3c-.9.6-2.7,1-5.7,1s-4.4-.3-5.2-1c-.9-.6-1.3-1.9-1.3-3.9v-.6s3.1,0,3.1,0v.4c0,1.2.2,1.9.6,2.1.4.3,1.5.4,3.3.4s2.3-.2,2.7-.5c.4-.3.6-1,.6-2.1s-.1-1.3-.4-1.6c-.3-.3-.9-.4-1.9-.5h-1.8c-2.6-.3-4.3-.6-5.1-1.2s-1.1-1.8-1.1-3.7.4-3.2,1.3-3.9c.9-.6,2.7-1,5.3-1s4.2.3,5.1.9,1.3,1.8,1.3,3.5v.6Z"/>
    <path class="cls-2" d="M181.7,50.9c3,0,5,.5,5.9,1.5.9,1,1.3,3.3,1.3,6.8s-.4,6.2-1.3,7.2c-.9,1-3,1.5-6.4,1.5s-5-.5-5.9-1.5c-.9-1-1.3-3.1-1.3-6.5s.4-6.5,1.3-7.5c.9-1,3-1.5,6.4-1.5ZM181.4,53.6c-2.1,0-3.4.3-3.7.8-.4.5-.5,2.4-.5,5.7s.2,3.8.6,4.3c.4.5,1.7.7,3.7.7s3.1-.3,3.5-.8c.4-.6.6-2.2.6-5s-.2-4.5-.6-5c-.4-.5-1.6-.8-3.6-.8Z"/>
    <path class="cls-2" d="M210.5,51.1v16.7h-3.2v-9.1c0-.7,0-1.6,0-2.5v-1.2c0,0,.1-1.2.1-1.2h0l-.4,1.2-.4,1.2c-.3,1-.6,1.8-.8,2.3l-3.7,9.4h-2.9l-3.7-9.4c-.2-.5-.5-1.3-.8-2.3l-.4-1.2-.4-1.2h0v1.2c0,0,.1,1.2.1,1.2,0,.9,0,1.8,0,2.4v9.1h-3.2v-16.7h5.2l3,7.7c.2.5.5,1.3.8,2.3l.4,1.2.4,1.2h.1l.4-1.2.4-1.2c.3-1,.6-1.7.8-2.3l2.9-7.8h5.3Z"/>
    <path class="cls-2" d="M233,51.1v16.7h-3.2v-9.1c0-.7,0-1.6,0-2.5v-1.2c0,0,.1-1.2.1-1.2h0l-.4,1.2-.4,1.2c-.3,1-.6,1.8-.8,2.3l-3.7,9.4h-2.9l-3.7-9.4c-.2-.5-.5-1.3-.8-2.3l-.4-1.2-.4-1.2h0v1.2c0,0,.1,1.2.1,1.2,0,.9,0,1.8,0,2.4v9.1h-3.2v-16.7h5.2l3,7.7c.2.5.5,1.3.8,2.3l.4,1.2.4,1.2h.1l.4-1.2.4-1.2c.3-1,.6-1.7.8-2.3l2.9-7.8h5.3Z"/>
    <path class="cls-2" d="M238.8,53.7v4.3h7.8v2.3h-7.8v4.7h8.3v2.7h-11.5v-16.7h11.4v2.7h-8.3Z"/>
    <path class="cls-2" d="M256.1,53.9v13.9h-3.2v-13.9h-4.8v-2.8h13v2.8h-5Z"/>
  </g>
  <g>
    <path class="cls-1" d="M3.5,60.7c-.2-1-.3-2.1-.6-3.1,0-.5-.2-.9-.3-1.4,0-.3,0-.7-.1-1-.2-2-.1-1.9-.3-2.6,0-.3-.1-.6-.1-.9,0-.3,0-.5,0-.8,0-1.1,0-2.2,0-3.2,0-1.2-.1-2.5,0-3.7,0-.3,0-1,0-1.4,0,0,0,0,0,0,0-.5-.2-.3-.3-.3,0,0,0,0,0,0-.9,1.1-.8,1.4-.9,2.8,0,.2,0,.2,0,.5,0,.8,0,1.5,0,2.3,0,.6,0,1.2,0,1.8,0,.3,0,.6,0,.9,0,.3,0,.6,0,.9,0,.2,0,.2,0,.5s0,.2,0,.5c0,.5,0,.9,0,1.4,0,.3,0,.6,0,.9,0,.3,0,.6,0,.9,0,1.5-.1,3,0,4.5-.1,1.2,0,2.4,0,3.6,0,.2,0,.2,0,.5s0,.2,0,.5,0,.2,0,.5,0,.2,0,.5,0,.2,0,.5,0,.2,0,.5c0,.4.2.9.5,1.1.5.4,1.1.4,1.6.4.2,0,.2,0,.5,0,0-1.2,0-2.3,0-3.5,0-1.2,0-2.4-.2-3.6Z"/>
    <path class="cls-1" d="M9.8,46.6c.2-.8-.2-1.6,0-2.5,0-.6.3-1.2.4-1.8.1-.7.3-1.5.5-2.2.4-1.8.6-3.6,1-5.4,0-.6.1-1.2.3-1.8,0-.6.1-1.1.3-1.7-.2.1-.1.2-.3.3-.2.2-.1.2-.3.3-.2.2-.4.4-.6.6-.2.3-.4.4-.6.6-.2.2-.1.2-.3.4-.2.2-.2.1-.3.3-.5.5-1,1.1-1.5,1.6-.3,1.5-.6,2.9-1,4.4-.2,1.3-.5,2.7-.8,4-.1.9-.2,1.8-.2,2.8,0,.3,0,.6,0,.9,0,1.5.1,3,0,4.6,0,.3,0,.6,0,.9,0,.4,0,.9,0,1.3,0,.9,0,1.8.1,2.7,0,1.2.2,2.4.2,3.6.2,2.4.2,4.8,0,7.2.2,0,.2,0,.4,0,.5,0,.9,0,1.3,0,.3,0,.5,0,.9,0,.2,0,.2,0,.4,0-.4-1.5-.4-3-.3-4.5,0-2,.2-4,.1-5.9.1-1.2-.4-2.4-.6-3.6,0-.3,0-.6.1-.9,0-.4.1-.9.2-1.3,0-.9,0-1.8.2-2.6,0-.3,0-.6,0-.9,0-.4,0-.9.2-1.3Z"/>
    <path class="cls-1" d="M6.3,63.6c0-.3,0-.6,0-.9,0-.9-.2-1.8-.2-2.7-.1-1.2,0-2.3-.2-3.5,0-1.6-.3-3.3-.3-4.9,0-.8,0-1.5,0-2.3,0-.5,0-.9,0-1.4,0-1.1.2-2.1.2-3.2,0-.8.1-1.5.2-2.3,0-.6.3-1.2.3-1.8.3-1.6.8-3.1,1.3-4.6-.3.2-.4.4-.6.6-.2.2-.4.4-.7.6-.3.4-.6.7-.9,1-.2.2-.1.2-.3.3-.3.2-.4.4-.7.6-.2.2-.1.2-.3.4s-.2.2-.3.3c-.2.2-.2.2-.3.3-.2.2-.2.1-.3.3-.3,1.2-.5,2.4-.6,3.6,0,.9,0,1.8,0,2.8,0,.6,0,1.2,0,1.8,0,.3,0,.6,0,.9,0,.6,0,1.2,0,1.8,0,.4,0,.9.1,1.3,0,.6.2,1.2.2,1.8.1.9.2,1.8.4,2.6,0,.6.3,1.2.3,1.8.2.7.2,1.5.3,2.2,0,.6.2,1.2.1,1.8.2,1.5.2,3.1.1,4.7.2,0,.2,0,.4,0,.4,0,.8,0,1.2,0,.2,0,.2,0,.4,0,0-.9,0-1.8,0-2.8,0-.5,0-.9,0-1.4Z"/>
    <path class="cls-1" d="M106.5,64.7c0-1.3-1.5-1.9-2.4-2.1-.7-.2-1.6-.2-2.2.2-.5.2-.4.6-.4,1.1-.1.9-.4,1.8-.4,2.7,0,.4.2.8.1,1.3.3,0,.3,0,.5,0s.3,0,.5,0c0-.3,0-.7,0-1,0-.2,0-.4,0-.5-.1-.2-.1-.3-.2-.4-.3-.9.5-1.5.9-2.1.2-.3.4-.3.7-.3.4,0,.8.3,1.1.6.6.3.9,1,.7,1.6-.1.6-.6.7-1,.2-.3-.3-.3-.9-.8-1-.6-.2-.9.3-.8.9,0,.1,0,.3,0,.4,0,.6,0,1.3.6,1.7.2,0,.2,0,.4,0s.2,0,.4,0c1.1.1,2.1-.2,2.1-1.4,0,0,0,0,0-.2,0-.4,0-.9,0-1.4Z"/>
    <path class="cls-1" d="M41,58.3c-.2-.5,0-.5.2-.8.2-.6.4-1.2.5-1.8.3-1.2.3-2.4.5-3.6,0-.4,0-.9.1-1.3,0-.6,0-1.2,0-1.8,0-.7-.1-1.5-.3-2.2,0-.1,0-.3,0-.4-.3-1.3-1-2.6-1.4-3.9-.2-.6-.3-1.2-.4-1.8,0-.9-.6-1.7-1.1-2.4-.5-.8-1-1.5-1.4-2.3-.3-.4-.5-.7-.7-1.2-.4-.6-.6-1.4-1.1-1.9-1-.9-2-1.9-2.8-3-.9-1-1.7-2.2-2.5-3.4-.4-.7-.8-1.6-1.7-1.8-.6-.5-1.1-1-1.7-1.6-.3-.2-.5-.4-.7-.6-.3-.3-.7-.6-1-1-.5-.4-.9-.8-1.3-1.2-.3-.3-.7-.4-1.1-.6-.2.1-.2.2-.3.3-.2.2-.2.1-.3.3-.2.2-.1.2-.3.3-.4.3-.6.6-.9,1-.2.2-.2.1-.3.3-.2.2-.1.2-.3.3-.5.4-.8.8-1.2,1.3-.2.2-.2.1-.3.3-.2.2-.1.2-.3.3-.2.2-.4.4-.6.6-.2.2-.4.4-.6.6-.1.4-.2.9-.4,1.3-.1.7-.3,1.5-.5,2.2,0,1-.3,2.1-.3,3.1,0,1.3.1,2.5.2,3.8,0,.8,0,1.7-.3,2.5,0,.9-.1,1.8-.2,2.7,0,.6-.1,1.2-.2,1.8,0,.9-.2,1.8-.4,2.7-.2,1.2-.3,2.4-.6,3.6,0,.9-.3,1.8-.3,2.7,0,.1,0,.3,0,.4,0,.8-.1,1.5-.2,2.2-.1,1.6-.1,3.3,0,4.9-.4-.5-.3-1.1-.3-1.7,0-.3,0-.6,0-.9,0-.7,0-1.5,0-2.2,0-1,.1-2,.2-3.1.2-.9.3-1.8.4-2.7.1-.9.3-1.8.4-2.7.2-.9.2-1.8.5-2.7.1-.6.2-1.2.2-1.8,0-1.1-.3-2.2.3-3.2,0-1,0-2.1,0-3.1,0-.3,0-.6,0-.9,0-.9-.1-1.8,0-2.7,0-.4,0-.9,0-1.3,0-.3,0-.6,0-.9,0-.9.3-1.8.5-2.6.3-.3-.5.5-.9,1-.2.2-.2.1-.3.3-.2.2-.2.2-.3.3-.4.5-.8.9-1.3,1.3-.2.2-.4.4-.6.7-.2,1.5-.5,2.9-.7,4.3-.2.6-.2,1.2-.3,1.8,0,.3,0,.6-.1.9,0,.9-.3,1.8-.3,2.7-.2.9-.2,1.9-.7,2.7-.6,1.4,0,2.5-.2,3.9-.1.6-.3,1.2-.3,1.8,0,.3,0,.6,0,.9,0,.3,0,.6,0,.9,0,.3,0,.6,0,.9,0,.8-.2,1.5-.2,2.3,0,.6,0,1.2.1,1.9,0,.3,0,.6.1.9.1.8.2,1.5.3,2.3,0,.5,0,1,0,1.5,0,.8,0,1.6-.1,2.4,0,.6,0,1.2,0,1.9,0,1.2.2,2.4.5,3.6.2,0,.2,0,.4,0s.2,0,.4,0c.5,0,.9,0,1.3,0,.2,0,.2,0,.4,0,.3,0,.5,0,.9,0,.2,0,.2,0,.4,0,0-1.4-.1-2.9-.5-4.3-.1-.6-.4-1.1-.4-1.7,0-.3,0-1,.6-.9.4,0,.1.6.2.9,0,.5,0,1,.2,1.4,0,.6.1,1.3.2,1.9.1.6.3,1.2.3,1.8,0,.3,0,.6,0,.9.2,0,.2,0,.5,0,.4,0,.6,0,1,0,.2,0,.2,0,.5,0s.3,0,.5,0c0-.4,0-.9,0-1.3.2-.7.2-1.5,0-2.3,0-.3-.3-.5-.2-.8,0-.4.7-.9.8-.3,0,.5.3.9.4,1.3.1.3.2.6.3.8.2.4.4.8.7,1.2.2.4-.2.4-.6.4-.4,0-.3.2-.3.4,0,.2,0,.4,0,.6.2,0,.2,0,.4,0s.2,0,.4,0,1,0,1.2,0c.3,0,.5,0,.9,0,.3,0,.5,0,.9,0,.2,0,.2,0,.4,0-.5-.8-1.2-1.4-1.5-2.3-.1-.2-.3-.5-.2-.8.2-.2.6-.3.7,0,.7,1,1.4,2.1,2.2,3.1.3,0,.6,0,.9,0,.3,0,.6,0,.9,0,.2,0,.2,0,.5,0s.2,0,.5,0,.2,0,.5,0c.5,0,.9,0,1.4,0,.2,0,.2,0,.5,0-.2-.6-.2-1.2-.4-1.7-.4-1.1-.7-2.3-1.2-3.4-.4-.7-1-1.2-1.5-1.7-.3-.4-.6-.7-.9-1.1-.3-.5-.6-1.1-.9-1.6-.3-1-.8-2-.8-3,0-.3,0-.6.2-.9.2-.7.7-1.4.6-2.2,0-.3,0-.6-.3-.9-.1-.2-.2-.5,0-.8.1-.2.5-.4.7-.2.2.1.2.5.3.7.7,2.3-.6,2.6-.5,4.4,0,.4.1.9.3,1.3.4,1,.9,1.9,1.5,2.7.7.6,1.3,1.3,1.8,2,.5.8.8,1.7,1.2,2.5,0,.3.1.6.2.9,0,.5.3.9.4,1.4,0,.5.1,1,.2,1.4.2,0,.2,0,.5,0s.2,0,.4,0c.3,0,.6,0,.9,0,.2,0,.2,0,.4,0,0-1.2-.2-2.3-.6-3.5-.2-.5-.6-1-.7-1.5-.1-.3-.2-.5-.1-.8.1,0,.3,0,.4,0,.2.1.4.4.5.6,0,.3.1.5.2.8.5,1.4.9,2.9,1,4.4.2,0,.2,0,.4,0s.2,0,.4,0,.2,0,.4,0,.2,0,.4,0,.2,0,.4,0,.2,0,.4,0c.3,0,.6,0,.9,0,.2,0,.2,0,.4,0s.2,0,.4,0,.2,0,.4,0c0-.5,0-.9.2-1.4,0-.6.2-1.2.3-1.9,0-.5.2-.9.2-1.4.1-.8.2-1.5.4-2.3.1-.9.4-1.8.6-2.7.3-1.2.5-2.4.8-3.6,0-.3.1-.6.2-1,0-.6-.2-1.2-.1-1.9,0-1.1,0-2.1.2-3.2,0-.6,0-1.2-.2-1.8,0-.4-.1-.6.3-.9.3,1.1.6,2.3.6,3.5.1,1.4,0,2.7,0,4,0,.3-.1.6-.1.9,0,.3-.1.6-.2.9-.3,1.3-.6,2.7-.9,4,0,.8-.3,1.5-.4,2.2,0,.3,0,.6-.2.9,0,.5-.1.9-.3,1.3,0,.5-.2.9-.2,1.4,0,.9-.3,1.8-.4,2.7.2,0,.3,0,.5,0s.3,0,.5,0c.1-.7.3-1.3.4-2,.2-1.1.3-2.1.5-3.2.1-1.4.7-2.8.3-4.3ZM18.1,46.9c-.2.6-.2,1.2-.4,1.7,0,.9-.2,1.8-.3,2.7-.2,1-.3,2.1-.3,3.1,0,.5.1.9.1,1.4.1.6.2,1.2.3,1.8,0,.5.3,1.1.3,1.6,0,.2-.6.4-.7.1-.2-.2-.2-.6-.2-.8,0-.8-.2-1.5-.3-2.3,0-.5,0-.9-.1-1.4,0-.3,0-.6,0-.9,0-.3,0-.6,0-.9.2-1.5.3-3,.6-4.6,0-.8.4-1.5.5-2.3,0-.1.2-.2.4-.1.4,0,.3.5.2.8ZM18.9,42.9c0-.1-.1-.2-.1-.5,0-1.6,0-3.3,0-4.9,0-.7,0-1.5,0-2.2,0-.6,0-1.2-.2-1.8,0-1.2-.6-2.3-.6-3.5,0-.3,0-.6.1-.9.1-.3.3-1,.7-.9.3,0,.2.3.1.5-.2.6,0,1.3,0,1.9.2.9.5,1.8.8,2.7.2.9.6,1.7.7,2.6.4,1.9.3,3.9-.3,5.8-.1.4-.2.9-.4,1.3-.1.3-.6.1-.8,0ZM25.1,63.9c.2.3.5.7.5,1.1,0,.3-.4.5-.6.5-.3,0-.5-.3-.7-.5-.3-.5-.5-1.1-.9-1.6-.6-.9-1.5-1.5-2.1-2.4-.3-.4-.5-.8-.7-1.2-.2-.4-.5-.8-.7-1.2-.2-.3-.3-.6-.3-.9-.1-.5-.2-.9,0-1.4-.3-1,.3-1.8.5-2.7,0-.3,0-.6.2-.8.5-.3.8,0,.6.5,0,.4,0,.8-.2,1.1-.1.3-.2.6-.3.8-.2.4-.2.9-.2,1.3,0,.6.2,1.2.4,1.7.2.3.3.5.4.8.3.3.5.7.9,1,1.1,1.2,2.4,2.3,3.2,3.7ZM26.1,42.1c0,.9-.3,1.8-.4,2.7,0,.5,0,.9,0,1.4,0,.3-.2.8-.5.8-.5,0-.1-.5-.3-.8-.1-.3-.2-.6-.2-.9,0-.7,0-1.5,0-2.2,0-.6,0-1.3.6-1.7.2-.2.4-.3.7-.1.4.2.2.5.2.9ZM25.8,37.8c-.5.1-.6.4-.9.8-.3.5-.6,1-.9,1.6-.9,1.7-1.7,3.6-1.9,5.5-.2.9-.1,1.8-.1,2.7,0,.4,0,.8-.5.8-1,0-1-.7-1.1-1.4,0-.9.3-1.7.6-2.6.2-.6.3-1.2.5-1.8.3-.6.4-1.2.6-1.7.2-.6.4-1.2.7-1.7,0-.3.2-.6.3-.9.4-.7.7-1.3,1.1-2,.4-.4,1-.8,1.5-.9.9-.3,1.9,0,2.6.7.1.1.3.2.4.3.2.3.3.6.5.8,0,.1,0,.3,0,.4,0,.2-.3.5-.5.4-1-.4-1.7-1.5-2.9-1.1ZM27.7,50.7c.1-.6,0-1.1-.1-1.7-.1-.7-.3-1.4-.3-2.2,0-.3,0-.6.1-.9,0-.3,0-.6,0-.9-.1-.6,0-1.2-.2-1.8,0-.8.2-1.6.3-2.4,0-1.4.5-1.7,1.7-.8,1.1.5,2.4.8,3.5,1.5.2.2.4.4.7.6.2.2.3.5.4.8,0,.3,0,.6.2.9.2.4.4.8.5,1.2,0,.3.2.6-.2.7-.4.1-.7-.5-.9-.8-.3-.3-.6-.7-1-1-1.4-1-2.6-.3-3.4,1-.2.5-.4,1.1-.4,1.7,0,.4,0,.9,0,1.3,0,.4,0,.9,0,1.3,0,.3,0,.6,0,.8,0,.3,0,.5,0,.8-.1.5-1,.2-.9-.3ZM36.2,46.2c-.6,0-.7-.4-.7-.9-.1-.5-.7-2.5-.1-2.6.1,0,.2,0,.3.1.3.5.6.9.8,1.5.1.4.1.8,0,1.3,0,.3,0,.6-.3.6ZM36.9,48.2c.5,0,.5.9.4,1.2,0,.1-.1.2-.3.2-.4,0-.7-.3-.7-.7.1-.3.3-.7.6-.7ZM35.3,50.3c.1.4.4.8.5,1.2.1.5-.6,1-.9.5-.4-.5-.6-1.1-.8-1.7,0-.2-.2-.6,0-.8.2-.3.7-.3.9,0,.1.3.3.5.4.8ZM36.1,53.4c0,1-.9,2-1.8,1.2-.4-.3,0-.5.3-.7.5-.2.4-.5.5-1,0-.1,0-.2.3-.2.3,0,.5.5.6.7ZM30.7,61.5c-.7-1.2-1.4-2.4-2-3.6-.1-.4-.3-.9-.5-1.3,0-.3-.4-1.3,0-1.4.2-.1.3.1.4.3.2.7.5,1.5.7,2.2.5,1,.9,2,1.5,2.8,0,.2.1.4.1.5,0,0,0,.2-.2.5ZM30.8,55.2c-.3-1.3-.8-2.6-.9-4,0-.4-.1-.9-.1-1.4,0-.6,0-1.2,0-1.8,0-.3,0-.6.1-.9.1-.3.3-.5.4-.7.6-.3,1.3-.5,1.8-.1.8.4,1.3,1.5.8,2.3-.1.2-.4.5-.7.4-.8-.4-1.1-.1-1.1.7,0,.2,0,.3,0,.4,0,.1,0,.3,0,.4,0,.4.1.9.1,1.3,0,.4.2.9.3,1.3.4,1,.4,2.4,1.6,2.8.6,0,.4.5,0,.7-1.3.4-2.1-.4-2.5-1.6ZM33.1,51.1c.1.3,0,.4-.3.4-.5-.2-.5-.7-.2-1.1,0-.1.2-.2.3-.2.3,0,.3.2.3.4,0,.2-.2.4,0,.5ZM35.5,61.7c0,.7.2,2-.8,2-.7-.1-1.1-.4-1.1-1.2,0-.7-.3-1.5-.5-2.2-.2-.3-.3-.5-.5-.7-.3-.4-.3-1.1.3-1.2.7-.2,1.1-1.3,1.7-.2.3.4.4.3.8.1.7-.4.7.1.8.7-.4.8-.5,1.7-.6,2.7ZM39.7,51.7c-.3,1.2-.4,2.4-.8,3.5,0,.3,0,.6-.2.9,0,.7-.3,1.5-.5,2.2,0,.7-.4,1.4-.5,2.2-.2.7-.3,1.5-.5,2.2-.3,1.4-.6,2.8-.9,4.3-.6-1-.7-1.7-.3-2.7.2-1.1.6-2.1.7-3.2.4-1.3.6-2.7.9-4.1.2-.7.6-1.3.8-2,.4-1.6.5-3.3.7-4.9,0-.3,0-.6,0-.9,0-.9,0-1.8-.2-2.7,0-.7-.3-1.4-.5-2.1-.2-.7-.6-1.3-.9-2-.5-.7-1-1.5-1.7-2-.4-.4-.8-.9-1.3-1.2-.3-.3-.6-.6-1-.8-.8-.7-1.7-1.2-2.5-1.8-.7-.6-1.5-1-2.2-1.5-.9-.6-1.8-1.1-2.6-1.7-.4-.3-.7-.6-1-.9-.2-.2-.4-.5-.8-.4-.2,0-.2.2-.2.4,0,.4,0,.7,0,1.1,0,.3,0,.8-.6.7-.2,0-.2-.2-.2-.3.1-.6,0-1.3-.1-1.9,0-.5,0-1.1.1-1.5.2-.4.6-.2.9,0,.8.4,1.4,1,2,1.5.8.7,1.6,1.4,2.5,2,.8.5,1.5,1.1,2.3,1.6.9.6,1.7,1.3,2.6,1.9.3.1.5.3.7.5.4.3.8.5,1.1.8.5.5,1.1,1,1.6,1.6.2.3.4.5.6.7.3.5.6,1,.9,1.6.4,1.1,1,2.2,1.2,3.4.2.6.2,1.2.4,1.8.2,1.4,0,2.7-.1,4.1ZM39.9,43.5c0-.3-.2-.6-.3-.9-.3-.7-.6-1.4-1-2.1-.2-.6-.6-1.1-.9-1.6-.4-.5-.7-1-1.1-1.4-.7-.8-1.6-1.4-2.4-2.1-.4-.3-.7-.6-1-.9-.5-.4-1-.8-1.5-1.2-.5-.5-1-.8-1.5-1.2-.8-.8-1.6-1.4-2.5-2.1-.3-.1-.5-.3-.8-.5-.5-.3-1.1-.6-1.6-1-.5-.4-.9-.8-1.4-1.2-.5-.4-1.5-2.1-1.9-.8-.3.8-.5,1.7-.6,2.6,0,.3,0,.6,0,.9,0,.6,0,1.1-.2,1.7,0,.4,0,.8-.5.9-.3,0-.5,0-.6-.3-.2-.3-.6-.9-.2-1.2.2-.1.3-.2.3-.4.3-.5-.3-.8-.4-1.3-.4-.9.2-1.8.4-2.6.1-.3.2-.6.3-.9,0-.3.2-.6.3-.9.1-.4.2-.9.4-1.3.2-.6,0-1.2.2-1.7.1-.2.5-.4.7-.2.3.3.5.7.7,1.1.5.9,1,1.9,1.8,2.7.5.6,1.2,1,1.8,1.5.7.6,1.4,1.2,2,1.9.7.5,1.4,1.2,2,1.8.7.5,1.4,1.2,2.1,1.8.2.2.5.4.7.6.4.3.7.6,1,.9.2.2.4.4.7.6.3.3.7.6,1,.9.7.6,1.3,1.2,1.8,2,.4.4.8.9,1,1.5.4.8.9,1.6,1.1,2.5.1.5.6,1.2,0,1.6Z"/>
    <path class="cls-1" d="M58.2,61.5c-.2-1.7-.2-3.4-.4-5.1,0-.3,0-.6-.1-.9,0-.8,0-1.5-.1-2.3,0-1.1-.1-2.1-.1-3.2-.1-.7-.1-1.5-.4-2.2-.2-.7-.2-1.4,0-2.1,0-.3,0-.6,0-.9,0-.4-.1-.9-.1-1.3,0-.3,0-.6,0-.9,0-.9.1-1.7.1-2.6,0-.6,0-1.2,0-1.7,0-.9-.3-1.7-.4-2.6-.1-.9-.2-1.8-.3-2.7,0-.3-.1-.6-.1-.9-.1-.7-.3-1.5-.4-2.2,0-.5,0-.9.1-1.4,0-.2.1-.4,0-.5-.4-1.3-.4-2.7-.6-4,0-1.4-.3-2.7-.6-4-.1-.7-.2-1.5-.4-2.2,0-.6-.2-1.2-.2-1.8,0-.3,0-.6,0-.9,0-1.1,0-2.3-.2-3.4-.1-.2-.2-.2-.3-.3-.3-.4-.6-.6-1-.9-.3-.4-.6-.6-.9-.9-.2-.2-.1-.2-.3-.3-.2-.2-.2-.1-.3-.3-.3-.3-.6-.6-1-.9-.2-.2-.1-.2-.3-.3s-.2-.1-.3-.3c-.2-.2-.3-.5-.6-.6,0,1.2.3,2.4.5,3.6.3.7.4,1.5.7,2.2.4,1.5.8,3,1.2,4.5.1.9.2,1.9.4,2.8.1.6.4,1.2.7,1.8.3.9.8,1.7,1.1,2.6.1.8.3,1.5.5,2.3,0,.6.1,1.2.3,1.8,0,.3,0,.6.1.9,0,.5,0,.9.3,1.4,0,.1,0,.3,0,.5.2.6.3,1.2.4,1.8.3,1.4.3,2.8.3,4.2-.2,1.4.5,2.8.6,4.2.1.3.1.6.1.9,0,.3.1.6.1.9.1.8.1,1.5.1,2.3.2,1,0,2.1.2,3.1,0,.1,0,.3,0,.5.1.7,0,1.5.2,2.2,0,.4,0,.9,0,1.3,0,1.9.3,3.9.3,5.8,0,.5,0,.9,0,1.3,0,.3,0,.6-.1.9,0,.8-.2,1.5-.2,2.3,0,.8,0,1.5,0,2.3,0,.9,0,1.9,0,2.8.2,0,.2,0,.4,0s.2,0,.4,0,.2,0,.4,0c.2-.8.4-1.7.5-2.6,0-.5,0-.9,0-1.4-.1-.8-.1-1.5-.2-2.3Z"/>
    <path class="cls-1" d="M52.4,60.6c.2-.7,0-1.5,0-2.2-.1-.6-.2-1.2-.2-1.8,0-.5,0-.9,0-1.4,0-.8,0-1.5,0-2.3-.1-.7,0-1.5-.2-2.2,0-.7,0-1.5-.2-2.2,0-.7,0-1.5-.2-2.2,0-1-.1-2.1-.3-3.1-.1-1-.2-2.1-.4-3.1,0-.6-.2-1.2-.4-1.7-.3-.8-.8-1.6-.9-2.5-.1-1-.5-2-.9-3-.4-1.2-1-2.6-1.4-3.8-.5-1.1-.7-2.3-1.2-3.4,0-.3-.2-.6-.3-.8,0-.3-.1-.6-.3-.9-.2-.7-.5-1.4-.7-2.1-.2-.7-.4-1.5-.6-2.2-.1-.6-.3-1.2-.5-1.7,0-.6-.3-1.1-.3-1.7,0-.6-.2-1.2,0-1.8,0-.6-.5-1.1-.7-1.7-.4-.9-.8-1.9-1.2-2.9-.3-.8-.5-1.7-.8-2.5,0-.1,0-.3,0-.4-.5-1.4-.9-2.8-1.3-4.2h0s0,0-.1.1c-.2.2-.2.1-.3.3-.2.2-.4.4-.6.7-.2.2-.4.4-.6.6-.2.2-.1.2-.3.3-.1.1-.2.1-.3.2h0s0,0,0,0c.4.9,1.1,1.7,1.4,2.6.1.3.3.5.4.8,0,.3.1.6.2.9,0,1.3.2,2.5,1,3.5.1.3.3.5.5.8.1.3.3.5.4.8.4.7.6,1.4.9,2.1.3,1.1.3,2.2.3,3.2,0,.6.3,1.2.6,1.8.3.7.6,1.4.8,2.1.1.6.4,1.1.4,1.8.2.7,0,1.5.2,2.2.2.7.3,1.5.5,2.2.3.8.5,1.7.9,2.5.1.4.3.8.5,1.2.7,1.4,1.3,3,1.9,4.5.2.6.4,1.1.5,1.7.1.3.2.6.2.9.1.4.3.8.3,1.3.2.4.3.9.4,1.3,0,.5.1.9.3,1.3.1.6.1,1.2.2,1.8,0,.8.1,1.5.2,2.3,0,.6,0,1.2,0,1.8,0,.3,0,.6,0,.9,0,3,.4,6-.1,9-.2,1.8-.7,3.6-1.2,5.3-.1.6-.3,1.3-.4,1.9.2,0,.2,0,.5,0s.2,0,.5,0c.4,0,.6,0,1,0,.2,0,.2,0,.5,0,.2-.6.3-1.3.5-1.9.2-.7.5-1.4.6-2.2.2-1,.5-2,.5-3.1Z"/>
    <path class="cls-1" d="M81.4,65.9c-.2-.6-.4-1.1-.5-1.7-.2-.9-.2-1.8-.3-2.6,0-.9,0-1.8,0-2.7,0-.7,0-1.5,0-2.2,0-.6-.1-1.2-.2-1.7-.1-.9-.4-1.7-.5-2.6-.3-1.6-.5-3.2-.6-4.8,0-.3,0-.6,0-.9,0-.4,0-.9,0-1.3,0-.6,0-1.2,0-1.8,0-1,.2-2.1.2-3.1,0-.6,0-1.2,0-1.8,0-1.1.3-2.2.7-3.2,0-.3.2-.6.3-.9.2-.7.5-1.4.7-2.1,0-.5.2-.8.3-1.3.1-.6.3-1.2.3-1.8,0-.3.2-.6.2-.9.2-1.3.3-2.6.4-4,.1-1.2.1-2.5.6-3.7-.2-.3-.4-.4-.7-.6-.2-.2-.1-.2-.3-.3-.4-.3-.6-.6-1-1-.2-.2-.2-.1-.4-.3-.2-.2-.1-.2-.3-.3-.2-.2-.2-.1-.3-.3-.5-.4-.9-.8-1.3-1.3-.2-.2-.2-.1-.3-.3-.2-.2-.1-.2-.3-.3-.2-.2-.4-.4-.7-.6-.2-.2-.1-.2-.3-.3,0,.6-.3,1.2-.4,1.7,0,.5,0,1-.1,1.4-.2.6-.6,1.1-1,1.7,0,.1-.2.3-.3.3-.2.1-.7,0-.7-.3,0-.1,0-.3,0-.4,0-.1,0-.3,0-.4,0-.6,0-1.2,0-1.8,0-1.5,0-3,.1-4.5-.9-.9-1.9-1.8-2.8-2.8-.1-.1-.2-.1-.2-.2,0,.3,0,.6,0,.9,0,.3,0,.6,0,.9,0,.6,0,1.2,0,1.8,0,.9-.2,1.8-.3,2.7,0,.5,0,.9-.2,1.4,0,.6,0,1.2-.2,1.8-.2,1.8.2,3.6-.3,5.3-.6-.7-.9-1.6-.5-2.4.2-1.1.5-2.2.4-3.3-.2-1.1-.4-2.2.2-3.2.2-.4.3-.8.4-1.2,0-.6,0-1.2,0-1.7,0-1.2-.2-2.4-.3-3.6,0,0,0-.1,0,0-.8-.7-1.3-.8-2.4-.6,0,.5-.2,1.1-.1,1.6-.1.6-.3,1.2-.6,1.8-.1.2-.3.7-.5.7-.5.2-.7-.5-.8-.9-.2-.4-.4-.8-.6-1.2-.2.1-.1.2-.3.4-.2.2-.2.2-.3.3-.7.6-1.3,1.3-2,2-.2.2-.2.1-.3.3.1.4.3.8.3,1.3,0,.4-.1.8-.1,1.2-.1.6,0,1.2,0,1.8.2.6.3,1.2.6,1.7.3,1.2.4,2.4.7,3.5,0,.7.2,1.5.3,2.2,0,.3,0,.6.1.9,0,.7.2,1.5.2,2.2.2.6,0,1.2.2,1.8,0,1.8.2,3.6.1,5.3,0,1.5.3,3,.2,4.5,0,.6-.2,1.2-.3,1.8-.1.4,0,.7,0,1.1.1.4.2.9.2,1.3.2.6,0,1.2.1,1.8,0,1.5-.2,3,0,4.5,0,.3,0,.6,0,.9,0,.3,0,.6,0,.9,0,.6.2,1.3-.3,1.8-.2-.4-.1-.5-.2-.9-.1-1.5-.3-3.1-.4-4.6,0-.6,0-1.2.1-1.8,0-.3,0-.6,0-.9,0-.1,0-.3,0-.4-.3-.7-.6-1.4-.9-2.1-.3-.8.1-1.6.3-2.4,0-.3,0-.6,0-.9,0-.9,0-1.8,0-2.7.2-1.2.1-2.4,0-3.6,0-.6-.2-1.1-.2-1.7,0-.4,0-.9,0-1.3,0-.8,0-1.5,0-2.3-.2-2-.5-3.9-.9-5.9-.2-.9-.3-1.8-.5-2.7,0-.3,0-.6-.2-.9,0-.3,0-.6-.2-.9-.1-.9-.3-1.8-.2-2.7,0-.4.1-.8,0-1.3,0,0,0,0,0,0-.4.3-.6.6-1,1-.2.2-.2.1-.3.3-.2.2-.1.2-.3.3-.3.2-.4.4-.7.6-.2.2-.1.2-.3.3-.2.2-.1.3-.3.3-.2,0-.1-.1-.3-.3s-.1-.2-.3-.3c0,.9.2,1.8.1,2.8,0,.5,0,.9,0,1.4,0,.8,0,1.5,0,2.3,0,.6,0,1.2,0,1.8.1,1,.2,2.1.4,3.1,0,.5.2.9.2,1.3.1.7.2,1.5.3,2.2.1,1.5.3,3,.4,4.4,0,.7.2,1.5,0,2.2-.9-.8-.9-1.8-.8-2.9,0-.6,0-1.2-.1-1.7,0-.6-.2-1.2-.2-1.7-.2-1-.7-2-.8-3-.4-1.6-.3-3.3-.5-5-.1-1.5,0-3.1,0-4.6,0-.3,0-.6,0-.9,0-.9-.1-1.8-.2-2.7-.2-.3-.4-.4-.7-.6-.3-.3-.6-.6-.9-1-.2-.2-.4-.4-.7-.6-.2-.2-.1-.2-.3-.3-.2-.2-.2-.2-.3-.3-.2-.2-.1-.2-.3-.4,0,.3,0,.6,0,.9,0,.6,0,1.1.1,1.7,0,.9.2,1.8.3,2.7.2.7.4,1.5.5,2.2.1.8.4,1.5.4,2.3.2.6.2,1.2.3,1.8.2.8.2,1.5.2,2.3,0,.6,0,1.2,0,1.8,0,.3,0,.6,0,.9,0,1.1.2,2.1.2,3.2.2,1.6.4,3.3.7,4.9,0,.8.2,1.5.2,2.2,0,.4,0,.9,0,1.3,0,.7-.1,1.5-.1,2.2,0,.3,0,.6,0,.9,0,.7,0,1.5.2,2.2,0,.9,0,1.8.2,2.7,0,.3,0,.6,0,.9,0,.6,0,1.2.1,1.8,0,.6,0,1.2,0,1.8.1,1.6.1,3.3.2,4.9,0,.9.2,1.8.2,2.7.1,1.5.3,2.9.3,4.4-.2.9-.4,1.9-.5,2.9.2,0,.2,0,.5,0s.2,0,.5,0,.2,0,.5,0,.3,0,.5,0c0-.9-.3-1.7-.4-2.5,0-.4.3-.9.5-1.2.2-.3.3-.5.3-.8,0-.2.3-.1.5,0,.4.7,0,1,0,1.7-.1.5-.1.9-.2,1.4,0,.5,0,.9,0,1.4.2,0,.2,0,.5,0s.2,0,.5,0,.2,0,.5,0c.6,0,1.2,0,1.8,0,.2,0,.2,0,.5,0s.2,0,.5,0c.2-1,0-2,0-3.1-.3-1-.3-2.1,0-3.2.2-.2.4-.3.7-.3.4,0,.2.5.2.8,0,1.9-.1,3.8-.2,5.7.2,0,.2,0,.4,0s.2,0,.4,0,.2,0,.4,0,.2,0,.4,0c.6,0,1.1,0,1.7,0,.2,0,.2.1.4,0,0-.7.2-1.5.3-2.2,0-.6.2-1.2.2-1.8.3-1.3.3-2.7.5-4,0-.1,0-.3,0-.4.2-.7.1-1.5.2-2.2,0-.5,0-.9.1-1.4,0-.5,0-.9.2-1.4,0-.6.1-1.2.4-1.8.1-.6.2-1.2.4-1.8.3-.8.6-1.7.6-2.6,0-1.8,0-3.7,0-5.5,0-.8.1-1.5,0-2.3,0-.2,0-.3,0-.5,0-.5,0-.9,0-1.4,0-.6-.1-1.2-.2-1.8-.1-.8-.4-1.5-.6-2.2-.2-.6-.5-1.1-.7-1.7-.1-.3-.3-.5-.4-.8-.2-1,.3-2,.5-2.9.2.7.3,1.5.4,2.2.1.6.3,1.2.3,1.8.1.7.3,1.5.5,2.2.2.4.3.9.4,1.3.4,1.3.2,2.8.4,4.1,0,1.2,0,2.4.1,3.7,0,.5,0,.9,0,1.4,0,.3,0,.6,0,.9-.1,1.5-.4,3-.9,4.5-.1.3-.3.6-.3.9-.1.3-.2.5-.3.8-.1.8,0,1.8,0,2.6-.2,1-.1,2.1-.3,3.1,0,.7-.2,1.5-.3,2.2,0,.9-.2,1.8-.3,2.6-.2,1.5-.3,3-.6,4.4.2,0,.2,0,.4,0s.2,0,.4,0c.6,0,1.2,0,1.8,0,.9-.1,1.8,0,2.7,0,.2,0,.2,0,.4,0s.2,0,.4,0c0-.5,0-.9,0-1.4,0-.9,0-1.8-.1-2.7-.1-.7-.3-1.4-.6-2.1,0-.5-.1-.9-.2-1.4,0-.6,0-1.2,0-1.8,0-.3,0-.6,0-.9,0-.5,0-.9.1-1.4,0-.6,0-1.2.1-1.8,0-.7,0-1.5,0-2.2,0-.5,0-.9,0-1.3,0-.4,0-.9,0-1.3.1-1.5.2-3,.3-4.5.1-1,.2-2.1.3-3.1,0-.3,0-.6,0-.9,0-.7.2-1.5.2-2.2,0-1.6-.3-3.3-.3-4.9,0-1.7.3-3.5,1.1-5.1.4.8.3,1.3,0,2.1-.4,1.5-.4,3-.5,4.5,0,.3,0,.6,0,.9,0,.3,0,.6,0,.9,0,.6,0,1.2,0,1.8,0,1.1,0,2.1-.1,3.2,0,.6,0,1.2-.1,1.8,0,.6,0,1.2-.1,1.8,0,.3,0,.6,0,.9,0,1.1,0,2.1-.2,3.2,0,1.5-.1,3.1-.2,4.6-.2,1.4-.6,2.7-.5,4.1,0,1.1.2,2.1.4,3.2,0,.8.4,1.5.4,2.3,0,.6,0,1.3,0,1.9,0,.6,0,1.1,0,1.7.2,0,.2,0,.5,0,.4,0,.6,0,.9,0,.4,0,.6,0,.9,0,.2,0,.2,0,.5,0s.2,0,.5,0c.5,0,.9,0,1.4,0,.2,0,.2,0,.5,0-.1-.3-.3-.6-.4-.9,0-.3-.2-.6-.4-.9ZM60.8,42.4c.6-.2.7.8.7,1.2,0,.5,0,1-.1,1.4-.4-.5-.5-1.1-.7-1.7,0-.4-.6-.7,0-.9ZM61.3,61.7c-.5,0-.4-.6-.4-.9,0-.4,0-.9.5-1,.5,0,.3.5.4.8,0,.4,0,1-.5,1.1ZM61.6,51.1c-.4,0-.5-.3-.4-.7,0-.2,0-.4,0-.5,0-.3.7-.3.7,0,0,.1,0,.3,0,.4,0,.2,0,.7-.3.7ZM61.5,48.1c-.4,0-.3-.5-.5-.7.1-.3,0-1,.4-1.1.2,0,.3,0,.3.2,0,.2,0,.6,0,.8,0,.3,0,.8-.4.8ZM65.8,58.2c-.5,0-.6-.8-.7-1.1,0-.3,0-.6.2-.8.2-.3.7-.3.8,0,0,.2,0,.4,0,.6,0,.4.2,1.1-.3,1.3ZM78.6,23.8c-.6-.9-1.1-1.9-.9-3,.2-.6.6-1.1,1.1-1.5-.1,1.6-1,2.9-.2,4.5Z"/>
    <path class="cls-1" d="M106.6,61.7c0-.3,0-.6,0-.9,0-.2,0-.2,0-.4-.8,0-1.5.3-1.8-.8-.3-.5-.3-1.1-1-1.1-1,0-1.6-.8-1.9-1.7,0-.3-.2-.4-.6-.4-.3,0-.7,0-1,.3-.2.2-.3.6-.4.9,0,.2-.1.3-.2.5,0,.3,0,.6-.1.9-.2,1.4-1.4,2.5-1.1,4-1.2-.9-.8-1.8-.3-3,.1-.9.4-1.7.4-2.6,0-.6,0-1.2,0-1.7,0-.6.1-1.1.1-1.7,0-.7-.3-1.8.4-2.3.4-.2.7.2.9.5.2.2.4.5.6.7.3.5.8.9,1.2,1.4.4.3.6.7.9,1,.2.3.3.5.5.8.2.3.3.6.5.8.2.2.5.4.8.3,1.4-.1,1.2,1.3,1.9,1.9,0-.2,0-.2,0-.4s0-.2,0-.4c0-.3,0-.6,0-.9,0-.2,0-.2,0-.4s0-.2,0-.4c0-.3,0-.6,0-.9,0-.3,0-.6,0-.9,0-.2,0-.2,0-.4-.2-.2-.4-.3-.7-.5-.2-.2-.4-.4-.5-.6-.4-.4-.7-1,0-1.3.4-.2.4.2.6.5.2.3.4.6.7.8,0-.2,0-.2,0-.5s0-.2,0-.5c0-.5,0-.9,0-1.4,0-.5,0-.9,0-1.4,0-.2,0-.2,0-.5s0-.2,0-.5,0-.2,0-.5c0-.3,0-.6,0-.9v-1.5c-.1-.4-.2-.8-.3-1.1-.2-.8-.4-1.5-.9-2.1-.4-.5-.7-.9-1.1-1.4-.2-.2-.2-.2-.4-.4-.2-.2-.2-.2-.4-.4.2.2.3.5.5.8l-.5-.8-1-.8s0,0,0,0c-.9-.8-1.7-1.7-2.6-2.5-.4-.4-.9-.8-1.3-1.3-.2-.2-.2-.1-.3-.3-.2-.2-.4-.4-.6-.6-.2-.2-.2-.1-.4-.3-.3-.4-.6-.6-1-.9-.3-.3-.6-.6-1-.9-.2-.3-.4-.4-.6-.7-.2-.2-.1-.2-.3-.3-.3.8-.5,1.7-.6,2.5,0,.6,0,1.2-.5,1.6-.2-.3-.2-.6-.2-.9,0-.5.2-.9.3-1.4.2-.8.4-1.5.5-2.3-.1-.2-.1-.2-.3-.3-.4-.5-.8-.8-1.3-1.2-.2-.2-.9-.9-1-1-.2-.1-.2-.1-.3-.3-.2-.2-.4-.4-.6-.6-.2-.1-.2-.1-.3-.3-.2-.1-.1-.2-.3-.3-.2-.1-.1-.2-.3-.3-.4.5-.7,1-1,1.6-.2.3-.3.5-.4.8-.7,1.4-.9,3-.7,4.5,0,.3.2.7-.1.8-.7.2-.6-1.2-.6-1.6.2-1.2.5-2.4.7-3.5,0-.3,0-.6.2-.9,0-.3,0-.6.2-.9.1-.7.2-1.4.4-2.1-.2-.3-.4-.4-.7-.6q-.2-.2-.3-.3c-.3-.2-.4-.4-.6-.7-.2-.2-.2-.1-.3-.3-.4-.5-.9-.8-1.3-1.3-.2-.3-.4-.4-.6-.7-.2-.2-.1-.2-.3-.3,0,.3-.2.6-.3,1,0,.5,0,1-.1,1.4,0,.3,0,.6,0,.9,0,.9-.2,1.8-.3,2.7-.1.6-.1,1.2-.3,1.8-.3,1.9-.9,3.8-1.4,5.6-.2.6-.4,1.1-.6,1.7-.2.4-.2.9-.3,1.3,0,.4,0,.9,0,1.3,0,.3,0,.6,0,.9,0,.5,0,1,0,1.5,0,.3,0,.7,0,1-.3,3.5-.2,7,.5,10.5.1.6.3,1.2.4,1.8.1.5,0,1,.1,1.4,0,.6,0,1.3,0,1.9,0,.7,0,1.5,0,2.2,0,.9.1,1.8.2,2.7.2.9.4,1.8.6,2.6.3.8.6,1.5.9,2.3.2,0,.2,0,.5,0,1.1,0,2.2,0,3.3,0-.2-.8-.2-1.6-.3-2.4,0-.8-.1-1.5-.2-2.3,0-.8-.3-1.5-.4-2.3,0-.6,0-1.2.3-1.8.3.4.4.8.4,1.3,0,.4.2.9.1,1.3.2.9.2,1.8.4,2.6,0,1.2.3,2.4.5,3.5.2,0,.2,0,.5,0s.2,0,.5,0,.2,0,.5,0,.2,0,.5,0c.4,0,.6,0,1,0,.2,0,.2,0,.5,0-.2-2-.4-4-.5-5.9,0-.3,0-.6-.1-.9,0-.6,0-1.2-.2-1.8,0-1.1,0-2.1-.1-3.2,0-.8,0-1.6.3-2.3,0-.6.3-1.2.3-1.9,0-.8,0-1.5.1-2.3,0-1,.2-2.1.3-3.1,0-.3,0-.6,0-.9,0-.7,0-1.5,0-2.2,0-.4,0-.8.3-1.2,0-.3.2-.5.6-.5,0,.9,0,1.8-.1,2.7,0,1.5-.1,3.1-.3,4.6,0,.9-.3,1.8-.3,2.7,0,.6-.1,1.2,0,1.7,0,.4,0,.9,0,1.3.1.7-.2,1.4-.1,2.2,0,.7,0,1.4,0,2.2,0,.6,0,1.2.2,1.7.1.8.2,1.7.3,2.5,0,.4,0,.8-.1,1.3,0,.3,0,.6,0,.8,0,.3.2.5.3.8,0,.6.3,1.1.3,1.6,0,0,0,0,.1,0,0,0,0,0,0,0,.2,0,.2,0,.5,0s.2,0,.5,0,.2,0,.5,0c.5,0,.9,0,1.4,0,.2,0,.2,0,.5,0,0-.6-.2-1.2-.4-1.7.6.5.8,1,1,1.7.2,0,.2,0,.4,0s.2,0,.4,0c.3,0,.5,0,.9,0,.3,0,.5,0,.9,0,.2,0,.2,0,.4,0s.2,0,.4,0c.1-.5.2-.9.3-1.4,0-.3.2-.6.2-.9,0-.3.2-.6.4-.9,0,0,0-.3,0-.3-.1-.3-.2-.6-.3-.9-.1-.8.1-1.5.5-2.2,0-.3.2-.6.4-.8,0-.3.2-.5.5-.7.4-.3.8-.2,1.2.1.6.7,1.7.9,2.1,1.8.5.6,1.4.4,2,1.1,0-.2,0-.2,0-.4s0-.2,0-.4ZM85,49.4c-.2,0-.3-.2-.3-.4,0-1.1,0-2.1.1-3.2.4.6.6,1.3.6,2,0,.3,0,.6,0,.8,0,.2,0,.7-.3.7ZM86.1,58.4c-.3-.3-.5-.7-.7-1.1-.1-.7,0-1.4.2-2.2.3,1,.8,2.1.5,3.2ZM88.6,41.8c0,.3,0,.6,0,.9,0,.3-.1.6-.1.9,0,.4-.1.9-.2,1.3-.2.6.2,1.4-.5,1.7-.3-.7-.3-1.5-.2-2.3.3-1.5.6-3,.3-4.5,0-.3,0-.6-.2-.9,0-.2,0-.4,0-.6,0-.1,0-.3,0-.4,0-.3.5-.3.6,0,.1.2.1.6.2.8.2.6,0,1.2.1,1.8,0,.4,0,.9-.1,1.3ZM92,40.5c-.2-.6-.3-1.2,0-1.8,0-.2.2-.7.6-.7.2,0,.2.2.2.4.2.8-.4,1.5-.8,2.1ZM97.6,48.3c-.5.3-.8,1-1,1.5-.3,1-.4,2-.2,3,0,.7,0,1.4,0,2.1,0,.6.1,1.2-.4,1.6-1.1,1.1-1.8,2.4-1.8,4,0,.7.4,1.3.5,1.9-.2,0-.3,0-.5,0,0-.3-.2-.6-.2-.9,0-.5,0-.9,0-1.4,0-1.1.4-2.1.9-3,0-.5.3-.8.6-1.2.5-.8.4-1.9.2-2.7-.1-1.2-.5-2.4-.3-3.6,0-.4.1-.9.2-1.3,0-.3,0-.6.2-.9,0-.4,0-.9.2-1.3,0-.9,0-1.8,0-2.6-.1-.9-.4-1.7-.8-2.5-.2-.5-.4-1.1-.7-1.6,0-.3-.1-.5-.2-.8,0-.3-.2-.6-.1-.9.3-1,1.4-.2,1.7.4.2.2.3.4.4.7.2.4.2.8.3,1.2.2.4.4.8.6,1.1.3.4.4.8.6,1.2.5.7.9,1.6,1.4,2.3.2.2.3.5.5.8.4.5.8.9,1.1,1.4.5.6.7,1.3,1.1,2,.1.3.3.5.5.7.3.3.6.7,1,.9.6.2,1,.8,1.1,1.4-.3.1-.4,0-.6-.3-.4-.6-1.1-.9-1.7-1.2-.2,0-.2,0-.3-.2-.1-.3-.3-.5-.5-.8-.7-.7-1.9-1-2.9-1.1-.3,0-.6-.2-.9,0Z"/>
    <path class="cls-1" d="M56.2,50.5c-.1-1.2-.2-2.4-.3-3.6-.1-1.2-.1-2.4-.2-3.6,0-1.5-.5-2.9-.8-4.4,0-.3,0-.6-.1-.9,0-.6-.1-1.2-.2-1.7-.1-.7,0-1.5-.2-2.2,0-1.5-.5-2.9-.8-4.3,0-.7-.2-1.5-.3-2.2-.1-1.2-.4-2.3-.8-3.4-.2-.4-.3-.9-.5-1.3-.1-.5-.2-.9-.4-1.4-.1-.8-.5-1.5-.9-2.2-.2-.3,0-.7,0-1,0-.3,0-.6-.1-.9,0-.5-.1-.9-.3-1.4-.3-1.3-1.1-2.5-1.4-3.9-.4-.8-.4-1.8-.6-2.7-.2-1.1-.4-2.1-.5-3.2,0-.3,0-.6,0-.9-.1-.2-.1-.2-.3-.3-.2-.2-.4-.4-.6-.6-.2-.2-.1-.2-.3-.3s-.2-.1-.3-.3c-.2-.3-.4-.4-.6-.6-.2-.2-.2-.1-.3-.3-.2-.2-.4-.4-.6-.6-.2-.2-.1-.2-.3-.3,0,.5.2.9.2,1.4,0,.3,0,.6.2.9,0,.8.2,1.5.2,2.3,0,1.1.3,2.1.4,3.2.1.4.2.9.2,1.4.2.9.4,1.8.7,2.7.6,1.8,1.4,3.4,2.2,5.1,0,.3.2.6.3.9.3.7.5,1.4.7,2.1.2.6.4,1.1.5,1.7.1.6.4,1.1.5,1.7.2.4.3.9.4,1.3.1.3.2.6.2.9.1.4.2.9.3,1.3.2.5.3,1,0,1.4-.5-.5-.6-1.2-.6-1.8-.1-.3-.2-.6-.2-.9-.3-1-.5-2-1-3-.2-.4-.5-.7-.7-1.1-.4-1-.3-2.1-.7-3-.1-.6-.5-1.1-.8-1.6-.1-.3-.2-.6-.4-.8,0-.1,0-.3-.1-.4-.5-1.3-.7-2.7-1.7-3.7-.5-.6-.3-1.4-.4-2.1-.3-1.1-.6-2.2-.9-3.4-.3-1.2-.4-2.3-.4-3.5,0-.5-.1-.9-.1-1.4,0-.8-.3-1.6-.2-2.4-.6-.2-1.3-.2-1.9,0-.5.3-.9.7-1.2,1.1h0s0,0,0,0c.8,2.8,1.5,5.7,2.5,8.5.2.4.3.9.6,1.3.5.6.8,1.3,1,2,.4.7.3,1.4.4,2.2,0,.5,0,1.1,0,1.7.4.7.5,1.4.8,2.1.2.4.3.9.3,1.3.2.7.4,1.4.6,2.1,0,.6.3,1.1.4,1.7.3.7.3,1.5.7,2.1.3.9.6,1.7,1,2.5.2.7.5,1.4.7,2.2.6,1.9,1.1,3.8,1.7,5.7.3.9.7,1.7,1,2.6.2.7.3,1.5.3,2.2,0,.6.1,1.2,0,1.8.2,1.1.2,2.1.3,3.2,0,.6.2,1.2.2,1.8.3,2.4.5,4.8.5,7.3,0,1,0,2.1,0,3.1,0,.5,0,.9,0,1.3,0,.6-.1,1.2-.2,1.8,0,.6-.2,1.2-.3,1.7-.2.9-.4,1.7-.6,2.6-.1.3-.2.6-.3.9.2,0,.2,0,.5,0,.3,0,.6,0,.9,0,.4,0,.6,0,.9,0,.2,0,.2,0,.5,0,0-.7.1-1.4.2-2.1.2-.6.2-1.2.3-1.8-.2-1-.4-2.1-.3-3.1,0-1.2.2-2.4.2-3.6,0-1.1,0-2.2-.2-3.2,0-.5-.2-.9-.2-1.4-.1-.9,0-1.8,0-2.8-.2-1.9-.5-3.9-.8-5.8-.2-2.4-.5-4.8-.7-7.1.7-.1.6.6.7,1,.1.3.2.6.2.9,0,.8,0,1.5,0,2.3.2,1.2.3,2.4.5,3.7,0,.6.1,1.2.2,1.8,0,.8,0,1.5.3,2.3.2,1.5.7,3,.7,4.5,0,.6,0,1.2,0,1.8,0,.6,0,1.2,0,1.8,0,.4,0,.9,0,1.3,0,.3,0,.6,0,.9,0,.3,0,.6,0,.9,0,.3,0,.6,0,.9,0,.8,0,1.5,0,2.3,0,.5,0,.9,0,1.4,0,1.1,0,2.2-.1,3.2.2,0,.2,0,.4,0s.2,0,.3,0c.2-1.4-.2-2.9,0-4.3,0-.7,0-1.4.1-2.2,0-1.2.2-2.3.2-3.5,0-.9,0-1.8-.1-2.7,0-1.5,0-3,0-4.6ZM52.9,35.6c-.5-.8-1-1.4-.9-2.4,0-.2,0-.4.2-.5.3,0,.5.5.6.7.3.7.3,1.4.1,2.1Z"/>
    <path class="cls-1" d="M28,14.6h0s0,0,0,0c0,0,0,0,0,0,0,0,0,0,0,0Z"/>
    <polygon class="cls-1" points="31.6 10.9 31.6 10.9 31.6 10.9 31.6 10.9"/>
    <path class="cls-1" d="M49.7,60.4c0-.3,0-.6.1-.9,0-.5,0-1,0-1.4,0-.5-.2-.9-.2-1.4,0-.5,0-.9,0-1.3,0-.7,0-1.5,0-2.2,0-.7,0-1.5,0-2.2,0-1.2-.2-2.4-.2-3.6,0-.4-.2-.9-.2-1.3-.1-.6-.3-1.2-.3-1.8-.1-.7-.4-1.4-.5-2.2-.5-1.9-1.1-3.7-1.8-5.6-.4-.8-.7-1.6-1.2-2.4-.2-.4-.3-.8-.6-1.2,0-.3-.2-.6-.3-.8,0-.3-.2-.6-.3-.8-.1-.6-.4-1.1-.5-1.7-.2-.9-.3-1.8-.4-2.7,0-.4-.2-.9-.2-1.4-.3-1.1-.6-2.3-1.1-3.4-.1-.4-.3-.8-.5-1.2-.2-.4-.2-.9-.3-1.3-.1-.9,0-1.8-.3-2.7-.1-.4-.3-.8-.4-1.3-.2-.4-.4-.8-.6-1.2-.4-.5-.6-1.1-.9-1.6-.3-1-.7-2.1-.8-3.2,0-.4,0-.9-.2-1.3-.1-.3-.3-.5-.4-.7-.2-.2-.3-.4-.4-.7-.2-.3-.5-.6-.6-1h0s0,0,0,0c-.1.1-.2.3-.4.4-.2.2-.1.2-.3.3-.2.2-.2.1-.3.3-.2.2-.1.2-.3.4-.2.2-.4.3-.5.5h0c.2.5.4.8.6,1.2.2.4.4.8.6,1.2.4.9,1,1.8,1.3,2.8.5,1.1,1,2.1,1.4,3.2.2.7.4,1.4.6,2.1.2.4.3.8.5,1.3.2.4.4.8.7,1.2.3.9,1.2,1.5,1,2.5-.7-1-1.5-1.9-2.2-2.9-.3-.4-.6-.7-.9-1-.4-.5-.7-1-1.1-1.4-.7-1.1-1.7-2.1-2.5-3.2,1.6.8,2.4,2.5,3.7,3.7,0,0,0,0,0,0,0,0,0,.1.1,0,0,0,0,0,0,0,.3-.7-.3-1.4-.4-2-.1-.4-.4-.8-.5-1.2,0-.3-.2-.5-.4-.8-.1-.3-.3-.5-.4-.8-.3-.5-.6-1-.9-1.5-.1-.3-.2-.5-.4-.8-.4-.9-.8-1.8-1.2-2.7h0s0,0,0,0c0,0,0,0,0,0-.2.2-.3.3-.5.5-.5.6-.9,1-1.5,1.6h0c.5.8.9,1.5,1.4,2.3-.3-.3-.6-.6-1-.9-.2-.3-.6-.6-.8-.9h0s0,0,0,0c-.2.1-.2.2-.3.3-.3.4-.6.7-.9,1-.2.2-.4.4-.7.6-.2.3-.4.4-.6.7-.2.2-.2.1-.3.3-.2.3-.4.4-.6.7,0,0-.6.6-.7.6-.2.3-.4.4-.6.7-.2.2-.2.1-.3.3-.2.3-.4.4-.6.7-.2.3-.4.4-.6.7-.2.2-.2.2-.3.3-.2.2-.2.1-.3.3,1.2,1.6,2.4,3.1,3.7,4.6.3.3.6.6.9,1,.2.2.4.3.4.5.3.3.6.7.8,1,.2.2.3.5.5.7.3.5.6,1.1,1,1.5.3.5.7,1,1.1,1.5.2.2.4.5.6.7.4.3.6.7.9,1,.4.3.6.7,1,1,.3.2.5.4.6.7.6.7,1,1.6,1.5,2.4.2.6.6,1.1.9,1.6.4.6.9,1.3,1.2,1.9,0,.3.2.6.4.8.5,1.3.9,2.6,1.3,3.9.3.9.7,1.7.9,2.6.2.7.4,1.5.5,2.2.2.9.1,1.8.2,2.7,0,.8-.2,1.5-.2,2.3-.1.6-.3,1.2-.4,1.8-.2.7-.3,1.5-.4,2.3-.2.6-.2,1.2-.3,1.8-.2,1-.2,2.1-.4,3.2,0,.6-.2,1.2-.3,1.8-.2,1.3-.6,2.6-.7,4,.2,0,.2,0,.5,0s.2,0,.5,0c.3,0,.6,0,.9,0,.2,0,.2,0,.5,0,.2-.9.4-1.8.8-2.7.2-.9.5-1.7.7-2.6,0-.4,0-.9,0-1.3,0-.8,0-1.5.2-2.3,0-.5.2-.9.3-1.3,0-.8.4-1.5.5-2.2.1-.3.2-.6.1-.9.2-1,.2-2,.2-3.1,0-.6-.1-1.2-.3-1.7,0-.3,0-.6-.1-.9,0-.1,0-.3,0-.5,0-.7-.2-1.5-.2-2.2,0-.6-.1-1.2-.1-1.8-.1-.9-.4-1.7-.7-2.6-.3-.5-.5-1.1-.8-1.6-.1-.2-.6-.4-.3-.7.5-.4.9.3,1.1.7.2.3.3.5.4.8.3.4.4.8.5,1.2.1.3.2.6.2.9,0,.9,0,1.8.2,2.7.2,1.1.3,2.1.5,3.2.3,1.5.4,3,.3,4.5,0,.6-.2,1.2-.2,1.8,0,.3-.2.6-.2.9-.3,1.1-.6,2.3-.8,3.4,0,.4,0,.9-.1,1.3,0,.7,0,1.5-.2,2.2-.2,1.7-.8,3.2-1.2,4.8.2,0,.2,0,.4,0s.2,0,.4,0,.2,0,.4,0,.2,0,.4,0,.2,0,.4,0c.5,0,.8,0,1.3,0,.2,0,.2,0,.4,0,.4-1.3.6-2.6,1-3.9.3-1.2.8-2.3,1-3.5ZM41.4,37.9c-.5-.7-.8-1.5-1.1-2.4-.2-.2-.3-.5-.4-.8-.3-.8-1.1-1.4-1.4-2.3-.3-.5-.5-1.1-.7-1.7-.4-.8-.6-1.7-1-2.6-.4-.8-.7-1.5-1.3-2.1-.2-.2-.4-.5-.5-.7-.4-.6-.9-1.2-1.2-1.9-.4-1-1.1-1.8-1.6-2.7-.2-.2-.4-.5-.6-.7-.3-.5-.8-.9-1.1-1.4-.2-.2-.4-.4-.5-.7-.4-.6-.7-1.3-1.4-1.6.7-.3,1.1,0,1.5.6.4.4.8.9,1.3,1.4.5.8,1.2,1.4,1.7,2.2.3.4.5.8.7,1.2.2.3.3.5.4.8.2.2.3.5.5.8.3.3.6.7.8,1.1.3.3.5.7.8,1.1.5.7.8,1.6,1.3,2.3,0,.3.2.6.4.8.9,2,1.7,4.1,2.6,6.2.4.8.8,1.7,1.3,2.5.2.6.6,1.1.8,1.7-.6-.2-1-.5-1.3-1.1Z"/>
    <path class="cls-1" d="M34,8.3s0,0,0,0c0,0,0,0,0,0,0,0,0,0,0,0h0Z"/>
  </g>
</svg>