<?xml version="1.0" encoding="UTF-8"?>
<svg xmlns="http://www.w3.org/2000/svg" version="1.1" viewBox="0 0 450.9 291.8">
  <defs>
    <style>
      .cls-1 {
        fill: #877851;
      }
    </style>
  </defs>
  <!-- Generator: Adobe Illustrator 28.6.0, SVG Export Plug-In . SVG Version: 1.2.0 Build 709)  -->
  <g>
    <g id="Layer_1">
      <g>
        <path class="cls-1" d="M36,244.7c-.6-3.9-1.2-7.8-2.3-11.6-.3-1.8-.7-3.3-1-5.1-.2-1.3-.3-2.6-.5-3.9-.8-7.7-.5-7.3-1.1-9.9-.3-1.1-.4-2.3-.4-3.5,0-1,0-2.1-.1-3.1.1-4.1-.2-8.1,0-12.2,0-4.7-.5-9.3.3-13.8.3-1.3.4-3.7.3-5.4,0,0,0-.1,0-.2.1-1.9-.7-1.3-.9-1,0,0,0,0,0,0-3.6,4.2-3.1,5.3-3.5,10.7,0,.8.2.8.2,1.7-.3,2.9,0,5.6-.1,8.5-.2,2.3-.1,4.5,0,6.8,0,1.3,0,2.1-.1,3.4,0,1.3,0,2.1.2,3.4,0,.8-.2.8-.2,1.7s0,.8,0,1.7c-.1,1.8,0,3.3,0,5.1,0,1.3.1,2.1.1,3.4,0,1.3,0,2.1,0,3.4,0,5.7-.4,11.3,0,17-.4,4.6,0,9-.2,13.6,0,.9.2.9.2,1.7s0,.9,0,1.7-.1.8-.1,1.7,0,.9,0,1.7-.1.9-.1,1.7.2.8.2,1.7c0,1.5.7,3.2,2.1,4.1,1.7,1.4,4,1.6,6.2,1.4.8,0,.9.4,1.7.1,0-4.4-.1-8.8.3-13.1-.2-4.5-.3-9-.9-13.5Z"/>
        <path class="cls-1" d="M59.7,191.5c.8-3-.7-6.2-.4-9.2,0-2.3,1.2-4.4,1.7-6.6.5-2.8,1.2-5.6,2-8.3,1.4-6.7,2.3-13.5,3.6-20.3.3-2.3.4-4.6,1.1-6.8.3-2.1.5-4.3,1.1-6.4-.7.5-.6.6-1.1,1.2-.6.6-.5.6-1.1,1.2-.9.9-1.5,1.5-2.3,2.4-.9,1-1.4,1.4-2.4,2.3-.6.6-.4.7-1,1.3-.6.6-.7.5-1.2,1.1-1.9,2-3.7,4.1-5.8,6-1.2,5.5-2.3,11.1-3.6,16.6-.8,5-1.8,10-3,15-.5,3.4-.8,6.9-.7,10.4.2,1.2.2,2.3,0,3.5,0,5.7.5,11.5.2,17.2,0,1.2.1,2.2,0,3.4.3,1.7.2,3.4.3,5.1.3,3.4.4,6.8.4,10.1.4,4.5.8,9,.7,13.5.7,9,.7,18.1.1,27.1.8.3.9,0,1.7,0,1.7-.1,3.2,0,4.9-.1,1.2.1,2.1.2,3.3.2.8,0,.8-.2,1.6-.2-1.5-5.6-1.5-11.4-1.2-17.1-.3-7.4.9-14.9.5-22.3.5-4.7-1.5-9.1-2.3-13.7,0-1.2.3-2.3.5-3.5,0-1.7.4-3.3.7-4.9,0-3.3.1-6.7.6-9.9-.1-1.1,0-2.2.3-3.3,0-1.7.3-3.3.7-4.9Z"/>
        <path class="cls-1" d="M46.5,255.7c0-1.2.1-2.3,0-3.5,0-3.4-.8-6.8-.8-10.2-.5-4.4-.3-8.8-.6-13.2-.4-6.2-1.1-12.3-1.1-18.5-.4-2.8,0-5.7,0-8.5-.2-1.7,0-3.4.2-5.1,0-4.1.7-8.1.9-12.1.3-2.9.5-5.8.9-8.6.3-2.3,1-4.5,1.1-6.9,1.3-5.9,3-11.6,4.8-17.3-1.1.7-1.6,1.5-2.4,2.4-.9.9-1.5,1.5-2.5,2.4-1.2,1.4-2.2,2.6-3.5,3.9-.6.6-.6.7-1.2,1.3-1,.8-1.6,1.4-2.5,2.4-.6.6-.4.8-1,1.4-.6.6-.6.6-1.2,1.2-.6.6-.6.6-1.2,1.3-.6.6-.7.5-1.2,1.2-1.1,4.5-1.9,9.1-2.2,13.7,0,3.5,0,6.9,0,10.4,0,2.3.2,4.6,0,6.9.1,1.2.2,2.3,0,3.5-.2,2.2,0,4.5.1,6.7,0,1.7.1,3.3.4,5,0,2.3.6,4.4.9,6.6.5,3.3.9,6.6,1.5,9.9.3,2.2,1,4.4,1.1,6.6.6,2.7.7,5.5,1,8.3.3,2.3.6,4.6.5,6.9.7,5.8.6,11.7.4,17.6.7.3.8-.2,1.6-.2,1.6.2,3,.1,4.7.1.8,0,.8.2,1.6,0,.2-3.5,0-6.9,0-10.3,0-1.7,0-3.5-.2-5.2Z"/>
        <path class="cls-1" d="M423.4,259.5c.2-4.9-5.7-7.1-9.2-7.8-2.7-.9-5.8-.6-8.3.8-1.7.8-1.4,2.4-1.3,4-.4,3.3-1.4,6.6-1.6,10,0,1.6.8,3.2.5,4.8,1,.2,1,0,2,0s1.1.3,2.1,0c0-1.1.1-2.5.2-3.8,0-.7.2-1.5-.1-2-.4-.6-.5-1.2-.7-1.7-1.3-3.3,1.8-5.6,3.6-7.8.7-1,1.6-1.3,2.7-1.1,1.5.2,2.9,1.1,4.1,2.1,2.3,1,3.4,3.6,2.8,6-.5,2.2-2.3,2.5-3.7.7-1.2-1.1-1.3-3.2-3-3.8-2.4-.9-3.4,1.2-3.1,3.2,0,.6-.2,1.1-.1,1.7.2,2.3.2,4.9,2.1,6.4.8.1.8-.1,1.6-.1s.8,0,1.6,0c4.2.5,7.7-.9,7.9-5.4,0-.4,0-.4,0-.7-.2-1.6.2-3.4,0-5.5Z"/>
        <path class="cls-1" d="M177.1,235.7c-.6-1.8.1-1.8.8-3.2.7-2.2,1.4-4.4,1.8-6.6,1-4.5,1.1-9.1,2-13.6,0-1.7.2-3.3.5-4.9-.1-2.2.2-4.4,0-6.6-.3-2.7-.4-5.5-1.2-8.2-.1-.5,0-1.1-.2-1.7-1.3-5.1-3.7-9.8-5.2-14.8-.7-2.2-1.1-4.5-1.6-6.8-.3-3.4-2.2-6.4-4.2-9.1-1.7-2.9-3.8-5.5-5.3-8.6-1.1-1.3-1.9-2.8-2.6-4.3-1.6-2.3-2.3-5.2-4.2-7.3-3.9-3.4-7.6-7-10.6-11.2-3.5-3.9-6.5-8.2-9.3-12.7-1.5-2.7-3.1-5.8-6.4-6.6-2.2-1.8-4.3-3.9-6.3-6-1-.7-1.8-1.5-2.5-2.4-1.3-1.2-2.7-2.2-3.8-3.6-1.8-1.4-3.4-3-4.9-4.7-1.2-1-2.6-1.5-4-2.3-.7.4-.6.6-1.1,1.2-.6.6-.7.5-1.2,1.1-.6.6-.5.7-1.1,1.3-1.3,1.1-2.3,2.2-3.4,3.6-.6.6-.6.5-1.2,1.1-.6.6-.5.7-1.1,1.3-1.7,1.5-3,3.1-4.5,4.8-.6.6-.7.5-1.3,1.1-.6.6-.4.7-1,1.3-.9.8-1.5,1.5-2.3,2.4-.9.9-1.5,1.4-2.3,2.4-.5,1.6-.9,3.2-1.4,4.8-.5,2.8-1.2,5.5-1.7,8.2-.3,3.9-1.1,7.8-1.1,11.7,0,4.7.5,9.4.8,14.1-.2,3.1.1,6.4-1.1,9.3-.1,3.4-.4,6.8-.9,10.1,0,2.3-.4,4.5-.9,6.7-.2,3.4-.8,6.7-1.5,10-.8,4.5-1.1,8.9-2.1,13.4-.4,3.4-1,6.7-1.3,10.1,0,.6-.3,1.1-.3,1.7,0,2.8-.5,5.6-.8,8.4-.4,6.2-.5,12.4-.3,18.6-1.6-1.8-1-4.2-1.2-6.4.1-1.1,0-2.2-.2-3.3.1-2.8,0-5.5-.2-8.3.2-3.9.5-7.7.8-11.5.6-3.4,1.1-6.8,1.6-10.2.4-3.4,1-6.8,1.5-10.2.6-3.4.7-6.9,1.8-10.2.5-2.3.9-4.5.8-6.9,0-4-1.1-8.3,1.1-11.9.3-3.9-.1-7.8,0-11.7-.2-1.1-.2-2.2,0-3.3-.1-3.3-.5-6.7-.2-10-.2-1.7,0-3.3.2-5,0-1.1,0-2.2,0-3.3.2-3.4,1.1-6.6,1.7-9.9,1.2-1.3-2,2-3.5,3.8-.6.6-.7.5-1.3,1.1-.6.6-.6.7-1.2,1.3-1.6,1.8-3.1,3.3-4.7,5-.9.9-1.7,1.4-2.4,2.5-.7,5.5-2,10.9-2.5,16.4-.7,2.1-.6,4.4-1.2,6.6,0,1.1-.1,2.2-.4,3.3-.4,3.4-1,6.6-1.3,10-.7,3.4-.8,7-2.5,10.2-2.4,5.4,0,9.4-.8,14.6-.5,2.2-1,4.4-1,6.6-.3,1.1-.4,2.2-.3,3.3-.2,1.1-.3,2.2-.3,3.4-.1,1.1-.3,2.2-.3,3.3,0,2.9-.7,5.7-.8,8.5.4,2.3.2,4.7.4,7,.2,1.2.3,2.2.4,3.5.6,2.9.6,5.8,1,8.7,0,1.8-.2,3.6,0,5.5.3,3-.3,6-.5,9.1-.1,2.3,0,4.7-.3,7,.3,4.5.8,9,1.9,13.4.8.2.8,0,1.6,0s.8.2,1.6.2c1.7,0,3.2,0,4.9,0,.8,0,.8-.2,1.6-.2,1.2,0,2.1.1,3.3,0,.8,0,.8.3,1.6,0-.1-5.4-.5-10.9-2-16.1-.5-2.1-1.6-4.2-1.5-6.4.4-1.3.3-3.6,2.2-3.5,1.5.2.5,2.3.7,3.3.2,1.8.3,3.6.6,5.3.3,2.4.5,4.8.8,7.1.5,2.3,1.1,4.5,1,6.9.3,1.1.4,2.3.3,3.4.9.3.9-.1,1.8-.1,1.4,0,2.3,0,3.7,0,.9,0,.9.1,1.8.1s.9.2,1.8,0c.2-1.7-.2-3.3,0-5,.6-2.8.8-5.7.1-8.6-.2-1-1-1.9-.9-3,.1-1.5,2.7-3.3,3.1-1,.2,1.8,1,3.3,1.5,5,.5,1,.8,2.1,1.2,3.1.8,1.5,1.5,2.9,2.5,4.4.6,1.4-.8,1.6-2.1,1.5-1.4-.2-1.1.9-1.2,1.6,0,.7-.1,1.5-.1,2.2.7.3.8,0,1.6,0s.8,0,1.6,0,3.8,0,4.6,0c1.2,0,2,.2,3.3.2,1.2,0,2,0,3.3,0,.8,0,.8.1,1.6-.1-1.9-2.9-4.6-5.3-5.7-8.6-.4-.9-1-2-.7-3,.6-.9,2.2-1.1,2.7,0,2.6,3.9,5.2,7.9,8.1,11.6,1.3.3,2.2,0,3.5,0,1.3,0,2.2,0,3.5.1.9,0,.9-.2,1.8-.2s.9,0,1.8,0,.9.2,1.8.2c1.8-.1,3.4,0,5.3,0,.9,0,.9.2,1.7,0-.7-2.1-.9-4.4-1.5-6.5-1.6-4.2-2.7-8.6-4.5-12.7-1.5-2.5-3.6-4.3-5.7-6.3-1.2-1.3-2.3-2.7-3.4-4-1.2-2-2.4-4-3.4-6.2-1.2-3.7-3-7.4-3-11.4.1-1.1.3-2.1.6-3.2.6-2.8,2.6-5.2,2.2-8.2,0-1.2-.2-2.3-1-3.3-.4-.8-.6-2-.1-2.8.4-.8,1.8-1.3,2.6-.9.7.5.8,1.8,1.1,2.6,2.8,8.8-2.3,9.6-1.9,16.6.3,1.6.4,3.3,1,4.9,1.5,3.6,3.4,7,5.7,10.2,2.5,2.4,4.9,4.8,6.9,7.7,2.1,2.9,3,6.3,4.4,9.5.2,1.2.4,2.3.8,3.4.3,1.8,1,3.5,1.4,5.3.2,1.8.4,3.6.9,5.4.8.3.9,0,1.7,0s.8,0,1.7,0c1.3,0,2.1,0,3.3,0,.8,0,.9.2,1.7,0-.2-4.4-.9-8.8-2.1-13-.7-2-2.1-3.7-2.5-5.8-.5-1-.7-2-.5-3.1.5,0,1.1,0,1.4.2.8.5,1.4,1.3,1.8,2.1.2,1.2.5,2.1.9,3.2,2.1,5.2,3.5,10.8,3.6,16.5.8.3.8,0,1.6,0s.8,0,1.7,0,.8,0,1.7,0,.8-.2,1.7-.2.8,0,1.7,0,.8,0,1.7,0c1.2,0,2.1,0,3.3,0,.8,0,.8,0,1.7,0s.8-.1,1.7-.1.9.3,1.7,0c.2-1.8.3-3.5.8-5.3,0-2.4.8-4.7,1-7,0-1.8.6-3.4.8-5.3.4-2.9.8-5.7,1.5-8.5.4-3.4,1.5-6.8,2.4-10.1,1-4.5,2-9,3.1-13.5.2-1.2.4-2.4.6-3.6.2-2.4-.8-4.6-.5-7-.2-4,.3-8,.7-12-.1-2.3-.2-4.6-.6-6.8-.3-1.3-.5-2.3,1.1-3.2,1.2,4.3,2.1,8.7,2.4,13.2.4,5.1,0,10.2-.3,15.2-.3,1.1-.4,2.2-.5,3.4-.3,1.1-.5,2.2-.6,3.3-1.1,5-2.1,10.1-3.4,15-.3,2.8-1.3,5.6-1.7,8.4-.1,1.2-.4,2.3-.7,3.4,0,1.7-.5,3.4-1,5.1-.1,1.7-.6,3.4-.9,5.1-.2,3.5-1.1,6.8-1.5,10.3.9.3,1,0,1.9,0s1,.1,1.9,0c.5-2.5,1.2-4.9,1.7-7.5.7-4,1.2-8,2-12,.5-5.4,2.8-10.7,1.2-16.1ZM90.9,192.6c-.9,2.1-.9,4.4-1.6,6.5-.3,3.3-.8,6.7-1.1,10-.8,3.9-1.3,7.9-1.1,11.8.2,1.7.5,3.4.5,5.1.5,2.2.8,4.5,1.2,6.8,0,2.1,1.2,4.2,1.1,6.2-.2.8-2.2,1.4-2.7.5-.6-.7-.8-2.1-.9-3-.1-2.9-.8-5.7-1-8.6,0-1.7-.2-3.5-.5-5.2,0-1.2-.1-2.3-.3-3.4.2-1.2.3-2.3.2-3.5.6-5.7,1.1-11.5,2.3-17.1.2-3,1.4-5.7,1.7-8.6.2-.5.6-.8,1.6-.6,1.4.3,1,2,.7,2.9ZM93.9,177.7c-.4-.4-.6-.9-.5-1.7,0-6.1-.2-12.3.3-18.4-.2-2.8.1-5.5-.4-8.3,0-2.2,0-4.5-.6-6.6,0-4.6-2.2-8.8-2.2-13.3.2-1.2.4-2.3.5-3.5.5-1.1,1-3.8,2.6-3.3,1.2.3.6,1.3.4,2-.8,2.3-.3,4.7-.4,7.1.6,3.5,1.7,6.9,3.1,10.2.7,3.3,2.3,6.4,2.6,9.7,1.4,7.1,1.1,14.7-1,21.7-.4,1.6-.7,3.3-1.5,4.8-.6,1.1-2.4.4-3.1-.3ZM117.1,256.8c.8,1.2,1.9,2.7,1.9,4.2,0,1.1-1.4,1.9-2.4,1.8-1-.2-2-1.1-2.7-2-1.3-1.9-2.1-4.1-3.5-5.8-2.4-3.2-5.5-5.8-8.1-8.9-1-1.4-1.7-3-2.7-4.4-.6-1.7-1.9-2.9-2.5-4.6-.6-1-1-2.1-1.1-3.3-.5-1.7-.7-3.4-.1-5.2-1.1-3.6,1.1-6.9,2-10.3.3-1-.2-2.4.9-3,1.9-1.1,2.9-.2,2.4,1.9-.2,1.4-.3,2.9-.8,4.1-.5,1-.9,2.1-1.2,3.2-.7,1.6-.8,3.3-.6,5-.3,2.3.7,4.4,1.4,6.6.6,1,1.2,1.9,1.7,2.9,1.1,1.3,1.9,2.8,3.2,3.9,4.1,4.6,9,8.6,12.2,13.9ZM120.9,174.8c-.3,3.4-1,6.7-1.7,10.1,0,1.7-.3,3.4-.3,5.1,0,1-.6,2.9-2,2.8-1.9-.1-.6-2-1.1-2.9-.5-1-.7-2.1-.7-3.2-.3-2.8,0-5.5.1-8.3-.3-2.3.4-4.7,2.2-6.2.8-.8,1.5-1,2.6-.5,1.5.6.8,2,.9,3.2ZM119.8,158.4c-1.9.4-2.3,1.3-3.2,2.9-1.2,1.9-2.4,3.8-3.3,5.9-3.5,6.4-6.2,13.4-7.2,20.7-.8,3.3-.5,6.7-.5,10.1.2,1.6.2,2.8-1.9,2.9-3.6.3-3.8-2.5-4-5.4.2-3.3,1.1-6.5,2.1-9.7.7-2.2,1.3-4.4,1.8-6.7,1-2.1,1.5-4.3,2.2-6.6.8-2.2,1.6-4.3,2.6-6.4.3-1.1.7-2.2,1.2-3.2,1.3-2.6,2.5-5.1,4.1-7.6,1.5-1.6,3.6-3,5.8-3.4,3.4-1,7.3.3,9.7,2.8.4.4,1,.8,1.3,1.3.6,1.1,1.2,2.1,1.9,3.1.2.5.2,1,.2,1.5,0,.8-1.2,1.9-1.9,1.6-3.7-1.4-6.4-5.6-10.8-4ZM127.1,207.2c.6-2.3,0-4.2-.4-6.5-.4-2.7-1.1-5.4-1-8.1,0-1.1.3-2.2.4-3.3-.1-1.1-.1-2.2,0-3.4-.5-2.2-.3-4.5-.7-6.7.2-3,.7-6,1-9,.2-5.3,2-6.5,6.3-3.2,4.3,2,8.9,3.2,13,5.5.8.8,1.7,1.6,2.5,2.3.6.9,1.1,2,1.5,3.1.2,1.1.2,2.3.6,3.3.6,1.6,1.7,3,2,4.6.3,1,.6,2.3-.8,2.7-1.6.5-2.5-1.9-3.3-2.9-1.3-1.3-2.4-2.7-3.8-3.9-5.2-3.6-9.8-1-12.7,3.9-.9,2-1.3,4.3-1.4,6.4-.2,1.6-.1,3.3,0,5,0,1.6,0,3.2,0,4.8.2,1.1.3,2.1.2,3.2,0,1,.3,2,0,3-.5,1.9-3.7.9-3.3-1ZM159,190c-2.2.2-2.7-1.5-2.8-3.3-.4-1.7-2.8-9.3-.4-9.7.6-.1.9.1,1.2.5,1.2,1.7,2.4,3.4,2.9,5.5.4,1.6.5,3.2.3,4.8,0,1,0,2.1-1.2,2.2ZM161.6,197.8c2,0,2,3.3,1.5,4.7-.2.4-.4.7-1.1.6-1.5-.2-2.5-1.1-2.7-2.6.6-1,1-2.7,2.3-2.7ZM155.4,205.4c.6,1.6,1.4,2.9,1.9,4.5.4,1.8-2.1,3.6-3.3,1.9-1.5-1.8-2.4-4.1-3-6.4-.1-.9-.7-2.1-.3-3,.7-1.2,2.5-1.1,3.2,0,.6.9,1,1.9,1.4,3ZM158.3,217.2c.1,3.8-3.5,7.3-6.8,4.4-1.4-1.1,0-2,1.3-2.7,2-.8,1.7-1.9,2-3.7.1-.5.3-.8,1.1-.6,1.1.2,1.8,1.8,2.3,2.6ZM138,247.8c-2.6-4.5-5.2-9-7.5-13.7-.5-1.7-1.1-3.3-1.8-4.9,0-1.2-1.5-4.8,0-5.3.9-.4,1.2.4,1.4,1.1.7,2.8,1.7,5.5,2.5,8.2,1.8,3.6,3.3,7.3,5.7,10.6.3.6.4,1.4.5,2,0,.3-.3.7-.7,1.9ZM138.6,223.7c-1.2-4.9-2.9-9.8-3.4-14.9-.3-1.7-.4-3.4-.4-5.1-.2-2.3-.2-4.5.3-6.8,0-1.1.1-2.2.4-3.3.4-1,1-1.9,1.7-2.6,2.1-1.1,4.8-1.8,6.9-.4,3,1.5,4.8,5.6,3,8.7-.5.9-1.4,1.8-2.5,1.3-3.1-1.4-4.1-.5-4,2.7,0,.6-.1,1.2-.3,1.6-.2.4.1,1.1.2,1.7.3,1.7.4,3.3.5,5,.3,1.6.8,3.3,1.1,4.9,1.4,3.6,1.6,9.2,6,10.5,2.2.3,1.7,2,0,2.6-4.9,1.4-7.8-1.4-9.2-5.9ZM147.4,208.3c.4,1-.3,1.5-1.1,1.6-1.8-.8-2-2.8-.9-4.2.3-.5.6-.9,1.3-.8,1.1.2,1.2.8,1.1,1.4-.1.7-.6,1.4-.3,2ZM156.3,248.3c-.4,2.6.9,7.6-3.2,7.5-2.7-.5-4.1-1.4-4.2-4.3-.2-2.8-1.1-5.5-2.1-8.1-.6-.9-1.2-1.9-1.9-2.8-1.2-1.5-1.2-4,1-4.5,2.5-.7,4.2-4.8,6.5-.7,1,1.6,1.5,1.3,2.9.4,2.5-1.5,2.7.5,3,2.5-1.5,3.1-1.9,6.6-2.1,10ZM172.2,210.7c-1.2,4.3-1.6,8.9-3,13.1,0,1.2-.3,2.2-.8,3.3-.3,2.8-1.3,5.5-1.9,8.2-.3,2.8-1.5,5.4-1.9,8.2-.7,2.8-1.2,5.5-1.9,8.2-1,5.4-2.3,10.7-3.4,16-2.2-3.6-2.5-6.2-1.3-10.2.7-4,2.3-7.9,2.8-11.9,1.6-4.9,2.4-10.2,3.4-15.2.9-2.6,2.3-5,3.1-7.7,1.4-6.1,2.1-12.3,2.7-18.5-.1-1.1,0-2.3,0-3.4-.3-3.4-.2-6.9-.9-10.2,0-2.8-1.2-5.4-2-8-.9-2.6-2.4-5-3.5-7.5-2-2.7-3.8-5.5-6.4-7.7-1.6-1.6-3-3.3-4.8-4.6-1.2-1.2-2.4-2.3-3.8-3.2-2.8-2.7-6.2-4.7-9.5-6.8-2.6-2.1-5.6-3.6-8.3-5.6-3.2-2.3-6.8-4-9.9-6.4-1.4-1-2.5-2.3-3.7-3.4-.7-.9-1.7-1.9-2.9-1.6-.8.2-.8.8-.8,1.3,0,1.4-.1,2.8-.4,4.2-.3,1.2-.3,3-2.1,2.6-.8-.2-.9-.7-.8-1.2.4-2.4,0-4.8-.4-7.2,0-1.7,0-4,.4-5.6.7-1.4,2.1-.7,3.4,0,2.9,1.5,5.2,3.7,7.7,5.8,3,2.6,6.1,5.1,9.4,7.4,2.9,1.9,5.6,4.2,8.6,6,3.3,2.3,6.4,4.7,9.6,7.2,1,.6,1.9,1.2,2.7,2,1.3,1.1,2.8,1.9,4,3.1,2.1,1.9,4.2,3.8,6.1,5.9.6.9,1.3,1.8,2.1,2.6,1,2,2.4,3.8,3.4,5.9,1.6,4.2,3.6,8.4,4.4,12.9.9,2.2.7,4.5,1.3,6.7.6,5.1.2,10.2-.5,15.3ZM172.7,179.8c-.2-1.2-.6-2.2-1.2-3.2-1-2.7-2.1-5.4-3.7-7.8-.9-2.1-2.3-4-3.4-6-1.4-1.8-2.5-3.9-4.2-5.4-2.7-3-5.9-5.4-9.1-7.9-1.4-1.1-2.5-2.4-3.9-3.4-1.7-1.7-3.7-2.8-5.5-4.4-1.7-1.8-3.6-2.8-5.5-4.4-2.9-2.9-6-5.4-9.3-7.8-1.1-.5-2.1-1-3-1.7-2-1.2-4-2.3-5.8-3.6-1.7-1.4-3.4-3-5.2-4.4-1.9-1.5-5.7-7.7-7.3-2.9-1.3,3.1-1.8,6.5-2.2,9.8,0,1.1.1,2.2.3,3.3.3,2.1-.4,4.2-.6,6.3-.1,1.4-.1,2.9-1.8,3.4-1.1.3-1.9-.3-2.3-1.2-.8-1.2-2.2-3.3-.8-4.6.6-.5,1-.9,1.2-1.4,1-2-1-3.1-1.7-4.7-1.5-3.3.6-6.7,1.4-9.9.5-1.1.8-2.2,1-3.3.4-1.1.8-2.2,1.2-3.2.4-1.7.9-3.3,1.7-4.9.6-2.1,0-4.4.9-6.4.4-.8,1.8-1.4,2.5-.6.9,1.3,1.8,2.7,2.5,4.1,2,3.5,3.7,7.3,6.6,10,1.9,2.2,4.5,3.8,6.8,5.8,2.5,2.4,5.1,4.6,7.6,7,2.7,2.1,5.2,4.4,7.7,6.8,2.8,1.9,5.1,4.5,7.7,6.6.9.7,1.7,1.5,2.5,2.3,1.3,1.1,2.7,2.1,3.8,3.4.8.8,1.7,1.5,2.6,2.2,1.3,1.2,2.6,2.2,3.7,3.6,2.6,2.2,5.1,4.6,7,7.4,1.5,1.6,2.9,3.5,3.8,5.6,1.6,2.9,3.5,5.9,4.1,9.3.5,2,2.3,4.3.2,6.1Z"/>
        <path class="cls-1" d="M241.9,247.7c-.6-6.4-.7-12.7-1.6-19.1,0-1.1-.2-2.3-.4-3.4-.2-2.8,0-5.7-.4-8.5.2-4-.5-8-.5-12-.4-2.8-.6-5.7-1.4-8.4-.7-2.6-.7-5.4-.4-8.1,0-1.1,0-2.2,0-3.3,0-1.6-.5-3.2-.5-4.9.1-1.1.2-2.2.1-3.3,0-3.3.4-6.6.5-9.9-.2-2.2.3-4.4-.2-6.6,0-3.3-1.3-6.6-1.3-9.9-.5-3.3-.8-6.7-1.1-10-.3-1.1-.4-2.2-.4-3.4-.5-2.8-1-5.6-1.4-8.5-.1-1.7.2-3.4.5-5.1.2-.7.4-1.4.2-2.1-1.5-4.9-1.4-10.2-2.2-15.2,0-5.1-1.1-10.2-2.4-15.1-.5-2.8-.7-5.6-1.5-8.3-.2-2.2-.6-4.4-.9-6.7,0-1.1,0-2.2-.2-3.4-.2-4.3-.1-8.6-.7-12.8-.5-.7-.6-.6-1.2-1.2-1.1-1.4-2.2-2.4-3.6-3.5-1.2-1.3-2.2-2.4-3.6-3.6-.6-.6-.5-.7-1.1-1.3-.6-.6-.7-.5-1.3-1.1-1.2-1.3-2.3-2.3-3.6-3.5-.6-.6-.5-.7-1.1-1.3-.6-.6-.7-.5-1.3-1.1-.8-.9-1.2-1.8-2.3-2.4,0,4.6,1,9,2,13.5,1.2,2.6,1.6,5.5,2.7,8.2,1.6,5.6,3,11.3,4.4,17,.5,3.5.9,7,1.6,10.5.5,2.3,1.6,4.5,2.6,6.7,1.1,3.3,3.1,6.3,4,9.8.5,2.8,1.1,5.7,1.7,8.5.2,2.3.5,4.6,1,6.9,0,1.2.2,2.3.5,3.4.3,1.7.3,3.5,1,5.1.1.6,0,1.2.2,1.7.9,2.2,1.1,4.5,1.6,6.8,1.1,5.2,1.1,10.5,1.2,15.7-.6,5.4,1.8,10.5,2.4,15.8.4,1.1.6,2.3.5,3.4.3,1.1.4,2.3.4,3.5.6,2.8.4,5.7.5,8.6.6,3.9,0,7.9.8,11.8,0,.6-.1,1.1-.1,1.7.4,2.8.3,5.6.6,8.4,0,1.7,0,3.4.3,5.1,0,7.3,1,14.6,1,21.9.2,1.7,0,3.4-.3,5.1,0,1.1,0,2.3-.4,3.4-.3,2.9-.6,5.8-.8,8.7,0,2.9-.2,5.8.1,8.7-.2,3.5.3,7.1,0,10.6.7.3.8-.1,1.5-.1s.7,0,1.4,0,.8.2,1.5,0c.8-3.2,1.5-6.4,2-9.7-.1-1.7,0-3.5,0-5.2-.4-2.9-.5-5.8-.9-8.7Z"/>
        <path class="cls-1" d="M219.7,244.2c.6-2.7.1-5.6.2-8.3-.5-2.2-.7-4.5-.8-6.8,0-1.7-.1-3.4-.3-5.1,0-2.9-.3-5.7-.3-8.6-.5-2.8-.2-5.6-.7-8.4,0-2.7-.1-5.6-.6-8.3,0-2.8-.2-5.6-.8-8.3-.2-3.9-.5-7.8-1.2-11.6-.4-3.9-.8-7.7-1.5-11.6-.2-2.2-.7-4.4-1.3-6.5-1.3-3-2.9-5.9-3.3-9.2-.4-3.9-2-7.6-3.3-11.3-1.5-4.6-3.8-9.7-5.2-14.3-1.8-4.2-2.8-8.5-4.5-12.7-.2-1.1-.6-2.2-1.1-3.2-.2-1.1-.5-2.2-1-3.2-.6-2.8-1.7-5.3-2.4-8.1-.8-2.7-1.3-5.5-2.3-8.1-.6-2.2-1-4.4-1.8-6.4-.3-2.2-1.2-4.3-1.2-6.6-.2-2.2-.6-4.5-.2-6.7,0-2.3-1.7-4.2-2.5-6.2-1.7-3.5-3.1-7.2-4.5-10.8-1.1-3.2-1.9-6.4-3.2-9.5-.2-.5-.1-1.1-.3-1.7-1.8-5.2-3.3-10.6-5.1-15.8h0c-.2.1-.3.3-.5.5-.6.6-.7.5-1.3,1.1-.9.9-1.4,1.6-2.2,2.6-.9.9-1.5,1.5-2.4,2.4-.6.6-.5.7-1.1,1.3-.5.5-.6.5-1,.8h0c0,.1,0,.1,0,.1,1.6,3.4,4.1,6.4,5.4,9.9.6,1,1,2.1,1.4,3.2.2,1.2.4,2.3.8,3.4,0,4.7.7,9.4,3.7,13.2.5,1,1,2,1.7,2.9.5,1,1,2,1.6,3,1.4,2.5,2.3,5.1,3.2,7.8,1,4,1,8.1,1.3,12.2.3,2.3,1.2,4.5,2.2,6.6,1,2.6,2.2,5.2,3.1,7.9.5,2.2,1.5,4.3,1.6,6.6.6,2.7.3,5.6.8,8.4.7,2.7,1.1,5.5,1.8,8.2,1.2,3.1,1.8,6.5,3.3,9.5.6,1.6,1.2,3.1,1.9,4.7,2.8,5.4,4.8,11.3,7.1,16.9.7,2.1,1.4,4.2,1.9,6.4.5,1,.8,2.1.9,3.2.5,1.6,1.1,3.1,1.3,4.8.6,1.6,1,3.2,1.3,4.9.1,1.7.5,3.4,1,5,.4,2.2.4,4.5.9,6.8,0,2.8.5,5.7.7,8.5,0,2.3.2,4.5.4,6.8-.1,1.1,0,2.3.1,3.4.2,11.4,1.6,22.7-.5,34-.8,6.8-2.5,13.6-4.6,20.1-.5,2.4-1,4.7-1.7,7.1.9.3.9,0,1.9,0s.9,0,1.9,0c1.4,0,2.3-.2,3.7-.1.9,0,.9.2,1.8,0,.6-2.4,1.1-4.9,1.9-7.3.7-2.7,1.8-5.3,2.1-8.1.8-3.8,1.9-7.6,2-11.5Z"/>
        <path class="cls-1" d="M329.1,264.3c-.6-2.1-1.4-4.2-1.9-6.4-.8-3.3-.8-6.6-1.2-9.9,0-3.3,0-6.7,0-10,.3-2.7,0-5.5.3-8.2-.3-2.2-.5-4.4-.6-6.6-.5-3.3-1.7-6.5-1.8-9.8-1.2-6-1.9-12.1-2.2-18.2,0-1.1,0-2.2-.2-3.3.3-1.7-.1-3.3,0-5,.2-2.2.3-4.5.3-6.7.3-3.9.9-7.8.7-11.8.3-2.3,0-4.6,0-6.8.2-4.2,1.2-8.3,2.7-12.1.3-1.2.6-2.3,1.2-3.4.7-2.7,1.8-5.3,2.6-8,.2-1.8.7-3.2,1.2-4.9.5-2.2,1.1-4.4,1.1-6.6.4-1.1.6-2.2.6-3.3.7-5,1.3-10,1.5-15,.5-4.7.5-9.4,2.2-13.9-.6-1.1-1.5-1.5-2.4-2.4-.6-.6-.5-.7-1.2-1.3-1.4-1.1-2.4-2.3-3.6-3.7-.6-.6-.7-.5-1.3-1.1-.6-.6-.5-.7-1.1-1.3-.6-.6-.7-.5-1.3-1.1-1.7-1.6-3.3-3.1-4.9-4.8-.6-.6-.7-.5-1.3-1.1-.6-.6-.5-.7-1.1-1.3-.9-.9-1.6-1.5-2.5-2.3-.6-.6-.5-.7-1.3-1.1-.2,2.2-1,4.3-1.4,6.5,0,1.8,0,3.6-.5,5.3-.9,2.3-2.4,4.2-3.6,6.3-.3.5-.6,1-1.1,1.3-.9.5-2.5,0-2.5-1.1,0-.5.2-1,.2-1.5,0-.6-.2-1.1-.2-1.7.2-2.3,0-4.5.2-6.7,0-5.6.1-11.2.4-16.8-3.5-3.6-7.3-6.9-10.7-10.6-.4-.4-.6-.5-.9-.7,0,1.1,0,2.2.1,3.4,0,1.2,0,2.3.2,3.4,0,2.3,0,4.6,0,6.9.2,3.5-.7,6.9-1,10.3,0,1.7-.4,3.5-.8,5.1-.3,2.3-.3,4.6-.7,6.9-.6,6.7.6,13.4-1,20-2.3-2.5-3.3-6-2-9.2.9-4.1,1.9-8.1,1.6-12.3-.6-4-1.5-8.4.8-12.1.7-1.5,1.2-3.1,1.4-4.7.3-2.2.4-4.4-.1-6.5,0-4.6-.7-9-1-13.6-.1-.3-.4-.5-.2-.3-2.8-2.7-4.9-3.1-9-2.2,0,2.1-.7,4.1-.5,6.1-.4,2.3-1,4.6-2.1,6.7-.5.9-1.1,2.5-1.9,2.8-1.8.6-2.7-2-3.2-3.3-.8-1.4-1.5-2.9-2.2-4.4-.8.4-.6.7-1.2,1.3-.6.6-.6.7-1.2,1.3-2.6,2.4-5,4.9-7.4,7.4-.6.6-.9.4-1.3,1.2.4,1.6,1.2,3.2,1.3,4.8.1,1.6-.5,3.1-.4,4.7-.5,2.2-.3,4.5.2,6.7.8,2.2,1.3,4.4,2.4,6.5,1.2,4.4,1.6,8.9,2.6,13.3,0,2.8.9,5.5,1.1,8.3,0,1.1.2,2.2.4,3.3.2,2.8.8,5.5.8,8.3.6,2.2.1,4.5.6,6.7.3,6.7.7,13.4.5,20.1,0,5.6,1.3,11.3.6,16.9-.1,2.2-.6,4.5-1.2,6.6-.5,1.3-.1,2.8.2,4.1.4,1.7.9,3.3.8,5,.6,2.2.2,4.5.6,6.8,0,5.7-.7,11.4-.3,17-.1,1.1,0,2.3.2,3.4-.1,1.1,0,2.3.2,3.4.4,2.4.9,4.9-1.1,6.8-.8-1.3-.5-1.9-.6-3.2-.5-5.8-1.2-11.5-1.6-17.3,0-2.3.3-4.6.4-7,.3-1.1.3-2.2,0-3.3,0-.6,0-1.1-.2-1.7-1-2.7-2.4-5.2-3.2-8-1-3.1.4-6,1.1-8.9.2-1.2.3-2.4.3-3.6-.2-3.4.1-6.7.2-10.1.6-4.5.5-8.9.3-13.4-.2-2.2-.7-4.3-.7-6.5-.3-1.6-.2-3.3,0-4.9.1-2.9-.2-5.7,0-8.6-.8-7.4-1.7-14.8-3.5-22-.6-3.4-1.2-6.8-2-10.1-.1-1.1-.4-2.3-.7-3.4,0-1.2-.3-2.3-.7-3.4-.4-3.4-1-6.8-.7-10.2.4-1.6.4-3.2-.1-4.8,0,0-.1.1-.2.2-1.4,1.2-2.3,2.4-3.6,3.6-.6.6-.7.5-1.3,1.1-.6.6-.5.7-1.1,1.3-1,.8-1.6,1.4-2.5,2.3-.6.6-.5.7-1.1,1.3-.6.6-.4,1-1.3,1.1-.7,0-.5-.5-1-1s-.4-.8-1.1-1.1c.3,3.5.8,6.9.5,10.4.1,1.7.3,3.5,0,5.2.4,2.9-.1,5.8.2,8.7,0,2.3,0,4.6.2,6.9.6,3.9.7,7.9,1.7,11.8,0,1.7.6,3.3.8,5,.4,2.8.7,5.6,1.2,8.4.6,5.6,1.3,11.1,1.7,16.7.3,2.8.6,5.5.3,8.3-3.3-3.2-3.5-6.7-3.2-11-.4-2.2,0-4.4-.5-6.6,0-2.2-.6-4.4-.8-6.6-.6-3.9-2.5-7.5-2.8-11.4-1.4-6.1-1.2-12.5-1.9-18.8-.5-5.8,0-11.6-.4-17.3,0-1.2,0-2.3-.1-3.5,0-3.5-.4-6.9-.9-10.3-.7-1.1-1.5-1.5-2.5-2.4-1.3-1.3-2.3-2.4-3.5-3.7-.9-.9-1.6-1.5-2.5-2.3-.6-.6-.5-.7-1.1-1.3-.6-.6-.6-.6-1.3-1.2-.6-.6-.4-.9-1.2-1.3,0,1.1,0,2.2.2,3.2.1,2.1,0,4.3.5,6.4-.2,3.4.7,6.7,1.1,10.1.7,2.8,1.4,5.6,2,8.4.4,2.8,1.3,5.6,1.5,8.5.6,2.2.8,4.5,1,6.8.6,2.8.6,5.7.8,8.6.2,2.3,0,4.6,0,6.9.2,1.1.2,2.3.1,3.4,0,4,.7,7.9.9,11.9.9,6.2,1.4,12.4,2.6,18.6-.1,2.8.9,5.6.9,8.4.2,1.7,0,3.3-.2,5,.2,2.8-.6,5.5-.4,8.3-.2,1.1-.2,2.2,0,3.3,0,2.8.2,5.6.6,8.3.2,3.4.3,6.7.9,10,0,1.1,0,2.2.2,3.3-.2,2.2.2,4.5.4,6.7-.1,2.2.2,4.5.3,6.7.4,6.1.5,12.3.9,18.4,0,3.4.8,6.7.6,10,.4,5.6,1,11.1,1.3,16.7-.7,3.5-1.4,7.1-1.8,10.7.9.3.9,0,1.9,0s.9,0,1.9,0,.9.1,1.9.1,1,.3,1.9,0c0-3.2-1-6.4-1.5-9.5.2-1.7,1-3.2,1.9-4.7.6-1,1.1-2,1.3-3.1.2-.7,1.2-.4,1.7.3,1.6,2.5-.3,3.8-.3,6.3-.5,1.7-.5,3.5-.9,5.3,0,1.8,0,3.6-.1,5.3.8.3.9,0,1.7,0s.9,0,1.7,0,.9-.1,1.7-.1c2.4,0,4.6.2,7,0,.9,0,.9,0,1.7,0s.9.2,1.7,0c.6-3.8.2-7.7,0-11.5-1-3.8-1.1-8.1-.1-11.9.6-.8,1.5-1.2,2.5-1.1,1.4.4.6,2,.6,2.9-.3,7.2-.4,14.4-.9,21.5.8.3.8,0,1.6,0s.8,0,1.6,0,.8.1,1.6.1.8-.1,1.6-.1c2.2-.2,4.2,0,6.4,0,.8,0,.9.4,1.6.1.2-2.8.9-5.5,1-8.4.4-2.2.9-4.4.9-6.6,1-4.9,1-10,1.8-14.9,0-.6,0-1.1,0-1.7.6-2.7.5-5.6.9-8.3.2-1.7,0-3.5.5-5.2,0-1.7.2-3.5.6-5.2.3-2.3.5-4.6,1.4-6.8.6-2.2.9-4.5,1.6-6.7,1.2-3.2,2.3-6.4,2.3-9.9.3-6.9,0-13.8,0-20.8.2-2.9.5-5.8.4-8.7,0-.6.2-1.1.2-1.7-.2-1.7,0-3.5-.3-5.2.1-2.3-.5-4.6-.6-6.9-.5-2.8-1.4-5.6-2.1-8.4-.7-2.2-1.9-4.2-2.7-6.4-.5-1-1.3-1.9-1.6-2.9-.7-3.8,1.3-7.4,2-11,.8,2.7,1.1,5.5,1.6,8.2.5,2.2,1,4.4,1.2,6.6.5,2.8,1.3,5.5,1.7,8.3.6,1.6,1,3.3,1.3,5,1.5,5.1.9,10.4,1.5,15.6.3,4.6.2,9.2.5,13.8-.3,1.7-.2,3.4-.1,5.2-.1,1.1-.3,2.3-.3,3.4-.5,5.7-1.6,11.4-3.3,16.8-.6,1-1,2.1-1.3,3.2-.5,1-.8,2-1,3.1-.4,3.2-.3,6.6-.3,9.8-.6,3.8-.4,7.8-1.2,11.6-.2,2.8-.6,5.5-1.2,8.2-.2,3.3-.8,6.6-1.3,10-.7,5.6-1.3,11.2-2.1,16.7.8.3.8,0,1.6,0s.8-.1,1.7-.1c2.3.2,4.4,0,6.7.2,3.4-.5,6.7.1,10-.2.8,0,.8,0,1.7,0s.9.3,1.7,0c0-1.8-.2-3.5-.3-5.3.2-3.4.3-6.7-.4-10.1-.5-2.7-1.3-5.4-2.1-8-.3-1.7-.5-3.4-.7-5.1-.1-2.3-.1-4.6.2-6.8-.1-1.2,0-2.3.3-3.4.1-1.7,0-3.4.5-5.1,0-2.3.2-4.6.6-6.8,0-2.8,0-5.6.4-8.4-.1-1.7.3-3.3.3-5,0-1.7.3-3.3.2-5,.5-5.6.8-11.2,1.2-16.8.5-3.9.8-7.8,1.1-11.7.2-1.1.3-2.2.2-3.4.3-2.8.6-5.6.8-8.4.3-6.2-1.2-12.3-1.3-18.4,0-6.6,1-13.3,4.3-19.1,1.3,3.1,1.1,4.8.2,7.9-1.5,5.5-1.5,11.3-2,17,0,1.1,0,2.3,0,3.4-.2,1.1-.2,2.3,0,3.4,0,2.3-.2,4.6,0,6.8,0,4-.3,8.1-.5,12.1,0,2.3-.2,4.6-.5,6.9.1,2.3-.3,4.6-.4,6.9,0,1.2,0,2.3-.3,3.4-.3,4-.4,8-.8,12.1,0,5.7-.5,11.7-.8,17.5-.6,5.1-2.1,10.2-1.7,15.5-.2,4,.8,8,1.6,11.9.2,3,1.4,5.8,1.6,8.8.1,2.4.3,4.7-.1,7.1.1,2.1.2,4.2.3,6.3.9.2.9,0,1.8,0,1.3,0,2.2,0,3.5,0,1.3,0,2.2,0,3.5,0,.9,0,.9.1,1.8.1s.9-.1,1.8-.1c1.9.2,3.4.1,5.3.1.9,0,.9.2,1.7-.1-.4-1.2-1-2.4-1.6-3.5-.3-1.2-.8-2.3-1.4-3.3ZM251.5,175.8c2.3-.9,2.5,3.2,2.7,4.6.3,1.8.3,3.6-.4,5.3-1.4-2-1.7-4.3-2.5-6.5-.3-1.6-2.1-2.5.2-3.5ZM253.4,248.4c-1.8,0-1.3-2.4-1.3-3.5-.1-1.4-.1-3.5,1.8-3.6,1.9-.1,1.2,1.8,1.4,2.9-.2,1.5.1,3.9-1.9,4.1ZM254.6,208.7c-1.6,0-1.7-1.3-1.6-2.5,0-.6-.1-1.3,0-1.9.1-1.1,2.6-1.2,2.4.2,0,.6-.2,1.2.1,1.5-.3.9.3,2.5-1,2.7ZM254.3,197.1c-1.7,0-1.2-1.8-1.7-2.7.5-1.2-.3-3.8,1.6-4,.7,0,1.1.2,1.3.7.2.8,0,2.2.2,3.1.2,1.2.3,3-1.4,3.1ZM270.3,235.2c-1.9.2-2.2-2.8-2.5-4.2.1-1,.2-2.2.7-3,.7-1,2.7-1.1,2.9.3.1.6,0,1.5,0,2.1,0,1.5.8,4.3-1.2,4.8ZM318.5,105.7c-2.4-3.4-4.2-7.2-3.4-11.5.9-2.2,2.2-4.2,4.1-5.6-.5,6-3.6,11.1-.7,17.1Z"/>
        <path class="cls-1" d="M423.6,248.4c0-1.2.1-2.1,0-3.3,0-.8.3-.9,0-1.7-3.1-.2-5.5,1-6.8-2.8-1-1.9-1.1-4-3.8-4.1-3.8,0-5.9-3.2-7.3-6.3-.3-1.1-.8-1.7-2.1-1.4-1.3.2-2.7.3-3.7,1.2-.9.7-1.1,2.3-1.6,3.4-.2.6-.5,1.1-.7,1.7-.4,1.2,0,2.4-.4,3.5-.6,5.2-5.3,9.5-4.1,15-4.4-3.5-2.8-6.7-1-11.1.6-3.2,1.6-6.4,1.4-9.7.2-2.2.3-4.4.1-6.5.1-2.2.5-4.3.4-6.5.4-2.7-1.2-6.8,1.7-8.5,1.6-.8,2.7.8,3.3,2,.7.9,1.5,1.8,2.3,2.6,1.2,2,3.1,3.5,4.5,5.4,1.4,1.1,2.2,2.7,3.5,3.9.6,1,1.3,2,2,2.9.6,1,1.1,2.1,1.9,2.9.8.9,1.9,1.4,3.1,1.3,5.4-.4,4.4,4.7,7.2,7,.3-.8.1-.8.1-1.7s0-.8,0-1.7c0-1.3,0-2.1,0-3.4,0-.8,0-.8,0-1.7s.1-.8.1-1.7c0-1.3-.2-2.1-.2-3.4,0-1.3,0-2.1,0-3.4,0-.8.1-.8,0-1.7-.8-.6-1.7-1.2-2.5-1.7-.7-.7-1.4-1.5-2-2.4-1.4-1.4-2.5-3.7-.2-4.9,1.7-.7,1.7.9,2.2,1.9.7,1.2,1.6,2.2,2.5,3.1.3-.8.1-.8.1-1.7s0-.9,0-1.8c0-1.9-.2-3.4,0-5.3,0-1.9-.1-3.4,0-5.3,0-.9,0-.9,0-1.8s.2-.9.2-1.8-.1-.9-.1-1.8c0-1.3.2-2.2,0-3.5l-.5-5.7c0-1.5-.3-2.9-.8-4.3-.6-2.8-1.6-5.7-3.3-8.1-1.4-1.8-2.6-3.5-4.3-5.1-.8-.8-.9-.7-1.7-1.5-.8-.8-.7-.9-1.6-1.6.8.9,1.3,1.9,1.8,3l-1.8-3-3.9-3.1s0,0,0-.1c-3.4-3-6.4-6.2-9.6-9.4-1.7-1.6-3.2-3-4.8-4.7-.6-.6-.7-.5-1.3-1.1-.8-.9-1.4-1.6-2.3-2.4-.6-.6-.7-.5-1.3-1-1.2-1.3-2.2-2.4-3.6-3.6-1.3-1.2-2.3-2.4-3.6-3.5-.8-1-1.4-1.6-2.3-2.5-.6-.6-.5-.7-1.3-1-1.2,3-1.9,6.2-2.4,9.4,0,2.2-.2,4.5-2,6.1-.9-1-.9-2.1-.6-3.2.3-1.8.6-3.5,1.1-5.3.7-2.9,1.3-5.8,2.1-8.6-.4-.7-.5-.6-1.1-1.2-1.5-1.7-3.1-3-4.8-4.6-.8-.9-3.2-3.4-3.6-3.8-.6-.6-.7-.5-1.3-1-.8-.9-1.3-1.5-2.2-2.3-.6-.6-.7-.5-1.3-1-.6-.6-.5-.6-1.1-1.2-.6-.6-.4-.8-1.1-1.2-1.5,1.8-2.6,3.8-3.6,5.9-.7,1-1.1,2-1.4,3.1-2.6,5.1-3.6,11.2-2.6,16.8.2,1,.9,2.6-.6,2.9-2.7.6-2.2-4.4-2.4-6,.8-4.4,1.9-8.8,2.8-13.3.1-1.1.4-2.1.6-3.2,0-1.1.3-2.2.6-3.2.5-2.7.7-5.3,1.3-8-.7-1.1-1.5-1.6-2.5-2.4q-.6-.6-1.2-1.2c-1-.9-1.5-1.5-2.4-2.5-.6-.6-.7-.6-1.3-1.2-1.6-1.8-3.4-3.1-5-4.8-.9-1-1.5-1.6-2.4-2.5-.6-.6-.5-.8-1.3-1.1-.2,1.2-.6,2.4-1,3.6-.1,1.8-.4,3.6-.5,5.4,0,1.1,0,2.2-.2,3.3,0,3.4-.7,6.7-1.2,10-.4,2.2-.4,4.5-1.1,6.6-1.1,7.1-3.3,14.2-5.3,21.1-.8,2.1-1.4,4.3-2.3,6.3-.6,1.6-.7,3.2-1,4.8-.4,1.6-.3,3.3-.1,4.9-.1,1.1,0,2.2.1,3.3-.2,1.9,0,3.7,0,5.6-.1,1.2-.2,2.5-.3,3.7-1.3,13.1-.9,26.5,2,39.4.4,2.3,1,4.6,1.6,6.8.4,1.8.3,3.6.5,5.4,0,2.4.2,4.8-.3,7.1,0,2.8-.2,5.7,0,8.4,0,3.4.5,6.7.8,10.1.6,3.3,1.5,6.6,2.2,9.9,1,2.9,2.3,5.7,3.2,8.7.8.3.9-.2,1.8-.2,4.1.4,8.1,0,12.3,0-.7-2.9-.6-6-.9-8.9-.2-2.9-.4-5.8-.8-8.7,0-2.9-1-5.7-1.4-8.6,0-2.3.2-4.6,1-6.8,1.2,1.4,1.6,3.1,1.6,4.8.2,1.7.6,3.3.6,5,.8,3.3.8,6.6,1.5,9.9.3,4.4,1.2,8.9,1.9,13.3.9.3.9,0,1.8,0s.9-.1,1.8-.1.9.1,1.8.1.9,0,1.8,0c1.3,0,2.3,0,3.6,0,.9,0,.9.3,1.8,0-.7-7.4-1.7-14.9-1.8-22.4,0-1.1-.2-2.3-.4-3.4-.2-2.3-.2-4.5-.6-6.8-.4-4-.3-8-.5-11.9.2-3,.3-5.9,1-8.8.2-2.4,1.1-4.6,1.2-7,.3-2.8,0-5.7.6-8.5,0-3.9.8-7.7,1-11.6,0-1.1.1-2.2.3-3.3-.2-2.8,0-5.6-.3-8.3-.2-1.6.4-3.2,1-4.6.3-1,.7-2,2.1-1.8-.2,3.4,0,6.9-.5,10.3,0,5.8-.5,11.5-1,17.2,0,3.4-1,6.8-1,10.2-.1,2.2-.4,4.3,0,6.5-.2,1.7.1,3.2,0,4.9.4,2.7-.6,5.4-.4,8.1-.1,2.7-.4,5.4,0,8.1.1,2.2.2,4.4.7,6.5.4,3.2.9,6.3,1,9.5-.2,1.6-.2,3.2-.4,4.8-.3,1-.4,2.1-.2,3.2,0,1.1.6,2,1,3,.3,2.1,1,4.1,1.2,6.2.2.2.3,0,.5,0,0,0,0,0,0,0,.9,0,.9,0,1.7,0s.9.1,1.7.1.9,0,1.7,0c1.8.2,3.4,0,5.2,0,.9,0,.9.2,1.7-.1-.3-2.2-.7-4.3-1.4-6.4,2.3,2,2.9,3.8,3.7,6.6.8.3.8,0,1.7,0s.8-.1,1.6-.1c1.2,0,2,0,3.3,0,1.2,0,2,.1,3.3.2.8,0,.8-.2,1.6-.2s.8.3,1.6,0c.6-1.7.8-3.5,1-5.3.4-1.2.6-2.3.7-3.6.4-1.2.8-2.3,1.4-3.4.2-.4.3-1,.1-1.3-.5-1.1-.9-2.1-1.2-3.2-.4-2.9.4-5.7,1.7-8.3.3-1.1.8-2.1,1.5-3.1.4-1.1.9-2,1.9-2.6,1.4-1.1,3.1-.8,4.4.4,2.4,2.5,6.4,3.3,7.9,6.7,1.8,2.4,5.4,1.6,7.5,4.1.3-.8.1-.8.1-1.6s-.2-.8-.2-1.7ZM342.6,202c-.8,0-1.3-.7-1.3-1.3.1-4,0-8.1.5-12.1,1.6,2.2,2.4,4.9,2.1,7.5.2,1.1,0,2.1-.2,3.2-.2.8.1,2.8-1.1,2.7ZM346.7,235.9c-1.1-1.2-2-2.5-2.7-4-.4-2.7-.2-5.4.6-8.1,1,3.9,3.1,8,2,12.2ZM356,173.5c-.2,1.1-.3,2.2-.3,3.3-.3,1.1-.4,2.2-.4,3.3-.2,1.6-.6,3.3-.6,4.9-.6,2.1.7,5.2-1.8,6.3-1-2.8-1-5.7-.7-8.6,1.3-5.5,2.1-11.5,1.3-17.1,0-1.2-.2-2.3-.6-3.4-.2-.7,0-1.4,0-2.1,0-.5,0-1,.1-1.5.4-1.1,1.9-1.3,2.3-.1.4.9.5,2.1.6,3.1.7,2.3.2,4.6.4,6.9-.2,1.6-.2,3.3-.4,4.9ZM368.7,168.7c-.7-2.1-1.1-4.6,0-6.6.3-.9.8-2.8,2.1-2.6.9.1.7.9.8,1.4.9,2.9-1.3,5.6-2.9,7.8ZM389.8,198.1c-2,1.1-2.8,3.7-3.8,5.6-1.1,3.7-1.3,7.6-.8,11.5,0,2.7,0,5.3.2,8-.3,2.1.4,4.7-1.5,6.2-4.1,4-6.8,9.1-6.6,15,.1,2.5,1.4,4.8,1.7,7.3-.9.3-1,.2-1.9,0-.2-1.2-.6-2.3-.9-3.5,0-1.7-.2-3.4,0-5.1.1-4,1.5-7.8,3.4-11.3-.1-1.9,1.3-3.1,2.1-4.6,1.9-3.1,1.6-7,.6-10.3-.4-4.4-1.8-8.9-1-13.4,0-1.7.5-3.3.9-4.9.1-1.1.3-2.2.6-3.2,0-1.7.4-3.3.6-4.9.2-3.3.4-6.6,0-9.9-.5-3.3-1.5-6.4-2.9-9.5-.9-2-1.5-4.1-2.5-6.1-.3-1-.6-2-.9-3.1-.4-1.1-.8-2.3-.4-3.4,1.1-3.8,5.2-.6,6.5,1.4.8.8,1.3,1.7,1.5,2.8.7,1.5.6,3.2,1.2,4.7.6,1.5,1.6,2.8,2.4,4.3,1,1.4,1.5,3,2.4,4.5,2,2.7,3.3,5.9,5.3,8.7.7.9,1.3,1.9,1.9,2.8,1.4,1.7,2.9,3.4,4.3,5.2,1.9,2.2,2.5,5.1,4,7.4.5,1,1.1,1.9,1.9,2.7,1.2,1.1,2.1,2.5,3.6,3.3,2.3.8,3.8,3,4,5.3-1.1.4-1.6-.3-2.3-1-1.6-2.2-4-3.6-6.5-4.5-.6-.1-.9-.3-1.1-.8-.6-1-1.2-2-1.8-2.8-2.7-2.8-7-3.6-10.8-4.3-1.1-.2-2.4-.8-3.5-.2Z"/>
        <path class="cls-1" d="M234.3,206.1c-.5-4.6-.6-9.2-1.1-13.7-.5-4.6-.5-9.1-.6-13.7-.1-5.8-2-10.8-3.2-16.4,0-1.1-.2-2.2-.5-3.3-.2-2.2-.4-4.4-.6-6.6-.5-2.7-.2-5.5-.8-8.2-.2-5.6-2-10.8-3.1-16.2-.1-2.8-.8-5.5-1.1-8.2-.5-4.4-1.3-8.8-3-12.9-.7-1.6-1.2-3.2-1.9-4.8-.4-1.7-.8-3.5-1.5-5.1-.5-2.9-1.8-5.6-3.4-8.2-.7-1.1-.3-2.6-.3-3.8,0-1.2-.2-2.3-.5-3.5-.2-1.8-.5-3.4-1.2-5.1-1.3-5-4-9.5-5.4-14.6-1.3-3.2-1.4-6.7-2.3-10-.8-4-1.3-8.1-1.9-12.1,0-1.2,0-2.3-.2-3.5-.5-.7-.5-.6-1.1-1.2-.8-.9-1.4-1.5-2.3-2.4-.6-.6-.6-.6-1.1-1.2s-.7-.5-1.3-1.1c-.8-1-1.3-1.6-2.3-2.4-.6-.6-.7-.5-1.3-1.1-.8-.9-1.4-1.5-2.3-2.4-.6-.6-.4-.8-1.2-1.2.2,1.8.6,3.5.9,5.3,0,1.2.3,2.3.6,3.5,0,2.9.7,5.7.9,8.6.3,4,1.3,7.9,1.6,11.9.5,1.7.7,3.4.8,5.1.8,3.4,1.6,6.8,2.8,10,2.3,6.6,5.3,12.8,8.1,19.2.3,1.1.7,2.2,1.2,3.2,1,2.6,1.9,5.3,2.7,8,.8,2.1,1.6,4.2,2,6.4.5,2.2,1.6,4.3,1.8,6.5.7,1.5,1,3.2,1.4,4.9.4,1.1.7,2.1.9,3.3.5,1.6.9,3.3,1.2,4.9.6,1.7,1.1,3.6,0,5.4-1.8-1.7-2.1-4.3-2.3-6.7-.4-1.1-.6-2.2-.6-3.3-1.1-3.8-2-7.7-3.8-11.2-.7-1.5-1.8-2.8-2.5-4.3-1.5-3.6-1.1-7.8-2.7-11.4-.5-2.3-1.7-4.3-3.2-6.1-.4-1.1-.9-2.1-1.4-3.1-.2-.5-.2-1.1-.4-1.7-1.8-4.9-2.6-10-6.5-13.7-1.9-2.1-.9-5.2-1.7-7.8-1.1-4.2-2.2-8.4-3.4-12.7-1.1-4.4-1.4-8.8-1.6-13.3-.3-1.8-.5-3.5-.5-5.3-.3-2.9-1-5.9-.9-8.9-2.3-.8-4.8-.6-7.1.2-1.8,1.1-3.3,2.5-4.7,4h0s0,0,0,0c3,10.7,5.5,21.6,9.3,32,.8,1.6,1.3,3.4,2.3,5,1.7,2.2,2.9,4.7,3.7,7.4,1.3,2.5,1.2,5.4,1.3,8.1-.3,2-.3,4.3.3,6.2,1.4,2.5,1.8,5.3,2.9,7.9.6,1.6,1,3.2,1.3,4.9.8,2.7,1.5,5.4,2.2,8.1.1,2.3,1.2,4.3,1.6,6.5,1,2.6,1.3,5.5,2.6,7.9,1.1,3.2,2.4,6.4,3.9,9.4.8,2.7,2,5.4,2.6,8.2,2.2,7.1,4,14.4,6.3,21.5,1.1,3.2,2.8,6.3,3.6,9.6.9,2.7,1,5.6,1.1,8.4.2,2.3.5,4.5.3,6.8.6,4,.7,8,1.2,12,0,2.3.7,4.5.6,6.8.9,9.1,2,18.2,1.8,27.4.3,3.9,0,7.9.2,11.8-.2,1.7.2,3.4-.2,5,.2,2.2-.5,4.4-.7,6.7-.4,2.2-.6,4.4-1.3,6.5-.7,3.3-1.5,6.5-2.1,9.7-.5,1.1-.8,2.2-1,3.3.8.3.9-.2,1.8-.2,1.3,0,2.2.1,3.5,0,1.3,0,2.2,0,3.5,0,.9,0,.9.2,1.8,0,.3-2.7.5-5.3.8-7.9.6-2.2.8-4.5,1-6.8-.6-3.8-1.6-7.7-1-11.6,0-4.6.7-9.1.8-13.7.2-4.1-.4-8.1-.8-12.2-.2-1.7-.8-3.4-.7-5.2-.5-3.4-.2-6.9-.3-10.4-.7-7.3-1.7-14.7-2.9-21.9-.9-8.9-1.7-17.9-2.5-26.9,2.5-.4,2.1,2.3,2.8,3.8.5,1.1.9,2.3.7,3.5,0,2.9,0,5.8,0,8.7.6,4.6,1,9.2,1.8,13.7.2,2.3.4,4.6.9,6.9,0,2.9.3,5.8,1,8.6.6,5.7,2.7,11.2,2.8,16.9-.1,2.2.3,4.4,0,6.7.2,2.2-.2,4.4.1,6.7,0,1.7-.4,3.3,0,5,0,1.1-.1,2.2,0,3.3-.2,1.1-.2,2.2,0,3.3-.1,1.1-.2,2.2-.1,3.3.2,2.9,0,5.7,0,8.6,0,1.7,0,3.5-.1,5.2.2,4.1-.3,8.1-.4,12.2.6.3.7,0,1.3,0s.7.2,1.3,0c.8-5.4-.6-10.8-.2-16.2-.2-2.8.3-5.5.5-8.2.2-4.4.7-8.8.6-13.3.2-3.4,0-6.8-.5-10.2,0-5.7-.3-11.4-.3-17.1ZM221.6,150.1c-2.1-2.8-3.9-5.2-3.4-8.9,0-.6-.2-1.5.7-1.7,1.2-.3,1.7,1.8,2.2,2.6,1.2,2.5,1,5.4.5,8Z"/>
        <path class="cls-1" d="M128.2,71.3h0c0,0,0,0,0,0,0,0,0,0,0,0,0,0,0,0,0,0Z"/>
        <path class="cls-1" d="M141.7,57.1s0,0,0,0c0,0,0,0,0,0h0Z"/>
        <path class="cls-1" d="M209.6,243.5c.1-1.2.3-2.4.5-3.5-.1-1.8,0-3.6,0-5.4-.2-1.7-.6-3.4-.6-5.1,0-1.7,0-3.4-.4-5.1.1-2.8,0-5.7-.2-8.5,0-2.8.1-5.7-.2-8.5.3-4.5-.7-9-.9-13.5-.3-1.7-.6-3.3-.7-5-.4-2.2-1-4.4-1.1-6.7-.5-2.8-1.4-5.5-1.9-8.2-1.8-7.1-4-14.1-6.7-20.9-1.6-3-2.7-6.2-4.4-9.1-.6-1.5-1.3-3.1-2.1-4.5-.3-1.1-.6-2.1-1.1-3.1-.3-1.1-.7-2.1-1.2-3.1-.4-2.2-1.4-4.2-1.7-6.4-.9-3.3-1.3-6.7-1.5-10-.3-1.7-.6-3.4-.7-5.1-1.2-4.3-2.4-8.6-4.1-12.7-.4-1.6-1.1-3.1-1.9-4.5-.7-1.6-.8-3.3-1-5-.5-3.3.2-6.9-1.3-10-.4-1.7-1.2-3.1-1.6-4.8-.8-1.5-1.4-3.1-2.2-4.5-1.4-1.9-2.4-4.1-3.4-6.2-1.3-3.9-2.7-7.8-3.1-11.9,0-1.6-.3-3.3-.7-4.9-.5-.9-1-1.9-1.6-2.8-.7-.8-1.3-1.6-1.7-2.6-.8-1.2-1.8-2.3-2.4-3.6h0s-.1-.2-.1-.2c-.5.5-.9,1-1.5,1.5-.6.6-.5.7-1.1,1.3-.6.6-.7.5-1.3,1.1-.6.6-.5.7-1,1.4-.7.6-1.3,1.2-2,1.9v.3c.7,1.5,1.5,2.9,2.3,4.2.7,1.5,1.5,3,2.3,4.4,1.6,3.5,3.7,6.8,5.1,10.5,1.9,4,3.6,8.1,5.2,12.2.9,2.6,1.4,5.4,2.2,8,.6,1.6,1.2,3.1,1.7,4.7.7,1.5,1.6,2.9,2.5,4.4,1.3,3.3,4.6,5.6,3.6,9.5-2.6-3.7-5.6-7.2-8.1-11-1-1.4-2.1-2.7-3.2-3.9-1.3-1.9-2.6-3.7-4.2-5.3-2.8-4.3-6.5-8-9.5-12.1,6.1,2.9,9.2,9.3,14,13.7,0,0,0,0,0,0,.2.4.4.4.4,0,0,0-.2,0-.3,0,1-2.7-1.1-5.1-1.7-7.6-.4-1.6-1.3-3-1.9-4.6-.4-1.1-.8-2.1-1.4-3-.4-1.1-1-2-1.6-2.9-1-2-2.1-3.9-3.2-5.8-.4-1-.9-2-1.5-3-1.7-3.3-2.9-6.8-4.6-10.1h0s0,0,0,0c0,0,0-.2-.1-.2-.6.6-1.2,1.3-1.8,1.9-1.8,2.1-3.6,3.9-5.5,5.9l.2.3c1.9,2.6,3.5,5.4,5.1,8.2-1.2-1.1-2.4-2.3-3.6-3.3-.9-1.3-2.1-2.4-3.2-3.6h0c0,0,0,0,0,0-.7.4-.6.6-1.2,1.2-1.2,1.4-2.2,2.6-3.5,3.8-.9.9-1.5,1.5-2.5,2.4-.8,1-1.4,1.7-2.3,2.6-.6.6-.7.5-1.3,1.1-.8,1-1.4,1.7-2.2,2.6-.2.2-2.3,2.2-2.5,2.4-.8,1-1.4,1.7-2.3,2.6-.6.6-.7.5-1.3,1.1-.8,1-1.4,1.6-2.4,2.5-.8,1-1.4,1.6-2.3,2.6-.6.6-.6.6-1.2,1.2-.6.6-.9.5-1.3,1.2,4.4,6,9.1,11.7,13.9,17.4,1.2,1.2,2.4,2.4,3.4,3.7.6.6,1.3,1.1,1.6,1.9,1.3,1.1,2.3,2.5,3.2,3.9.6.9,1.3,1.8,2,2.7,1.3,1.9,2.3,4,3.7,5.7,1.3,1.9,2.8,3.7,4.1,5.6.9.8,1.6,1.7,2.2,2.7,1.3,1.1,2.4,2.6,3.5,3.9,1.4,1.1,2.4,2.5,3.7,3.7,1,.7,1.7,1.6,2.3,2.6,2.2,2.8,3.9,5.8,5.6,8.9.8,2.2,2.3,4,3.5,6.1,1.7,2.4,3.3,4.7,4.7,7.3.4,1.1.8,2.2,1.5,3.1,1.9,4.8,3.4,9.8,5,14.8,1.2,3.2,2.8,6.3,3.4,9.8.9,2.7,1.6,5.5,1.7,8.4.9,3.4.4,6.9.6,10.3-.2,2.9-.7,5.7-.9,8.5-.4,2.3-1.3,4.5-1.4,6.8-.9,2.8-1.2,5.6-1.6,8.5-.7,2.2-.7,4.6-1,6.9-.8,3.9-.8,8-1.6,11.9-.1,2.2-.6,4.5-1.2,6.6-.6,5-2.1,9.9-2.8,15,.8.3.9-.2,1.8-.2s.9.1,1.7.1c1.3,0,2.2,0,3.5,0,.9,0,.9.3,1.8,0,.8-3.4,1.6-6.9,2.9-10.1.8-3.3,2-6.5,2.8-9.8.2-1.6,0-3.3-.2-4.9.3-2.8,0-5.7.7-8.5.2-1.7.8-3.3,1.2-5,.3-2.8,1.5-5.5,1.9-8.3.4-1.1.6-2.2.6-3.4.8-3.8.7-7.7.7-11.5-.4-2.2-.5-4.4-1.2-6.6,0-1.1-.1-2.3-.4-3.4,0-.6,0-1.1,0-1.7-.3-2.8-.6-5.6-.6-8.4-.2-2.2-.4-4.5-.5-6.7-.5-3.3-1.4-6.6-2.5-9.8-1.1-2-1.9-4.1-2.9-6.1-.5-.8-2.3-1.5-.9-2.6,2-1.4,3.3,1.2,4,2.7.6,1,1.2,1.9,1.6,3,1,1.4,1.5,3,2,4.7.4,1.1.7,2.1.8,3.3.3,3.4.4,6.8.7,10.2.6,4,1.2,7.9,1.7,11.9,1.2,5.5,1.6,11.1,1.2,16.8,0,2.2-.6,4.4-.7,6.6-.4,1.1-.6,2.1-.6,3.3-1.1,4.3-2.4,8.5-3.1,12.8,0,1.6-.3,3.3-.5,4.9-.3,2.8.2,5.6-.6,8.4-.8,6.2-3.2,12.1-4.3,18.2.8.3.8,0,1.6,0s.8-.2,1.6-.2.8.1,1.6.1.8-.1,1.6-.1.8.2,1.6.2c1.7-.2,3.2,0,4.9,0,.8,0,.9.3,1.7,0,1.4-4.9,2.2-9.8,3.9-14.6,1.2-4.4,2.9-8.6,3.9-13.2ZM178.4,158.8c-2-2.6-3.2-5.8-4.3-8.9-.6-.9-1.1-1.9-1.5-2.9-1.3-3.2-4-5.5-5.2-8.6-1.3-2-1.9-4.1-2.7-6.3-1.4-3.2-2.3-6.5-3.6-9.7-1.3-2.8-2.6-5.8-4.8-8-.8-.8-1.5-1.7-2-2.7-1.7-2.3-3.2-4.6-4.7-7-1.5-3.6-4.1-6.7-5.9-10.2-.7-.9-1.4-1.7-2.1-2.6-1.2-1.9-3.1-3.2-4.3-5.1-.8-.8-1.3-1.7-1.7-2.7-1.6-2.2-2.7-4.7-5.3-6,2.5-1.2,4.3.2,5.7,2.2,1.6,1.7,3.1,3.5,4.8,5.1,2,2.8,4.5,5.4,6.4,8.4,1,1.4,1.8,3,2.5,4.6.7,1,1.1,2,1.5,3.1.7.9,1.3,1.9,1.8,2.9,1.1,1.3,2.2,2.5,3.1,4,1.1,1.3,1.9,2.8,3,4,1.8,2.8,3.2,5.9,5.1,8.7.3,1.1.8,2.1,1.4,3.1,3.5,7.6,6.4,15.5,9.8,23.2,1.6,3.2,3,6.3,4.9,9.3.9,2.2,2.2,4.3,3.2,6.5-2.3-.9-3.8-2-4.9-4.2Z"/>
        <path class="cls-1" d="M150.6,47.6s0,0,0,0c0,0,0,0,0,0,0,0,0,0,0,0h0Z"/>
      </g>
    </g>
  </g>
</svg>